<svg xmlns="http://www.w3.org/2000/svg" viewBox="3880 -11304 148 111">
  <defs>
    <style>
      .cls-1, .cls-10, .cls-2, .cls-8, .cls-9 {
        fill: none;
      }

      .cls-1 {
        stroke: #8cc63f;
        stroke-width: 4px;
      }

      .cls-1, .cls-8, .cls-9 {
        stroke-linecap: round;
      }

      .cls-1, .cls-10, .cls-2, .cls-5, .cls-6, .cls-7, .cls-8, .cls-9 {
        stroke-miterlimit: 10;
      }

      .cls-2, .cls-5, .cls-6, .cls-7, .cls-8 {
        stroke: #29abe2;
      }

      .cls-3 {
        fill: #534741;
      }

      .cls-4 {
        fill: #8cc63f;
      }

      .cls-5 {
        fill: #fcee21;
      }

      .cls-6 {
        fill: #999;
      }

      .cls-7 {
        fill: #b3b3b3;
      }

      .cls-8, .cls-9 {
        stroke-linejoin: round;
      }

      .cls-9 {
        stroke: #fff;
      }

      .cls-10 {
        stroke: #fcee21;
      }
    </style>
  </defs>
  <g id="Group_2630" data-name="Group 2630" transform="translate(3880 -11304)">
    <path id="Path_1135" data-name="Path 1135" class="cls-1" d="M78.5,81.4S74,94,78,102"/>
    <path id="Path_1136" data-name="Path 1136" class="cls-2" d="M125.3.8C57,.8.8,46,.8,101.8"/>
    <rect id="Rectangle_3235" data-name="Rectangle 3235" class="cls-3" width="22.7" height="100.9" transform="translate(125.3)"/>
    <rect id="Rectangle_3236" data-name="Rectangle 3236" class="cls-3" width="148" height="11.8" transform="translate(0 99.2)"/>
    <ellipse id="Ellipse_478" data-name="Ellipse 478" class="cls-4" cx="7.2" cy="13.8" rx="7.2" ry="13.8" transform="translate(51.786 68.748) rotate(-45)"/>
    <ellipse id="Ellipse_479" data-name="Ellipse 479" class="cls-4" cx="13.8" cy="7.2" rx="13.8" ry="7.2" transform="matrix(0.866, -0.5, 0.5, 0.866, 74.462, 76.049)"/>
    <g id="Group_2629" data-name="Group 2629">
      <path id="Path_1137" data-name="Path 1137" class="cls-5" d="M82.8,15.6V12.2a2.006,2.006,0,0,0-2-2H76.1a2.006,2.006,0,0,0-2,2v3.4A11.041,11.041,0,0,1,72,22.2a11.065,11.065,0,0,0-2.1,6.3,8.5,8.5,0,0,0,17,0,11.574,11.574,0,0,0-2.1-6.3A11.671,11.671,0,0,1,82.8,15.6Z"/>
      <path id="Path_1138" data-name="Path 1138" class="cls-6" d="M79.7,10.3a1.216,1.216,0,0,0-1.2-1.2,1.29,1.29,0,0,0-1.2,1.2"/>
      <path id="Path_1139" data-name="Path 1139" class="cls-7" d="M74.2,12.2v3.4a7.569,7.569,0,0,1-.1,1.5H83a7.569,7.569,0,0,1-.1-1.5V12.2a2.006,2.006,0,0,0-2-2H76.2A2,2,0,0,0,74.2,12.2Z"/>
      <path id="Path_1140" data-name="Path 1140" class="cls-8" d="M76,17.1"/>
      <path id="Path_1141" data-name="Path 1141" class="cls-9" d="M75.1,27.3l1.8,2.4,1.8-2.4,1.7,2.4,1.8-2.4"/>
      <line id="Line_1396" data-name="Line 1396" class="cls-10" x2="12.7" transform="translate(50 28.5)"/>
      <line id="Line_1397" data-name="Line 1397" class="cls-10" y1="3.3" x2="12.2" transform="translate(51 32.6)"/>
      <line id="Line_1398" data-name="Line 1398" class="cls-10" y1="6.4" x2="11" transform="translate(53.8 36.4)"/>
      <line id="Line_1399" data-name="Line 1399" class="cls-10" y1="9" x2="9" transform="translate(58.3 39.7)"/>
      <line id="Line_1400" data-name="Line 1400" class="cls-10" y1="11" x2="6.4" transform="translate(64.2 42.2)"/>
      <line id="Line_1401" data-name="Line 1401" class="cls-10" y1="12.2" x2="3.3" transform="translate(71.1 43.8)"/>
      <line id="Line_1402" data-name="Line 1402" class="cls-10" y1="12.7" transform="translate(78.5 44.3)"/>
      <line id="Line_1403" data-name="Line 1403" class="cls-10" x1="3.3" y1="12.2" transform="translate(82.6 43.8)"/>
      <line id="Line_1404" data-name="Line 1404" class="cls-10" x1="6.4" y1="11" transform="translate(86.4 42.2)"/>
      <line id="Line_1405" data-name="Line 1405" class="cls-10" x1="9" y1="9" transform="translate(89.7 39.7)"/>
      <line id="Line_1406" data-name="Line 1406" class="cls-10" x1="11" y1="6.4" transform="translate(92.2 36.4)"/>
      <line id="Line_1407" data-name="Line 1407" class="cls-10" x1="12.2" y1="3.3" transform="translate(93.8 32.6)"/>
      <line id="Line_1408" data-name="Line 1408" class="cls-10" x1="12.7" transform="translate(94.3 28.5)"/>
    </g>
  </g>
</svg>
