<svg id="Group_2612" data-name="Group 2612" xmlns="http://www.w3.org/2000/svg" xmlns:xlink="http://www.w3.org/1999/xlink" viewBox="4438 -11334 32 160">
  <defs>
    <style>
      .cls-1, .cls-3, .cls-5 {
        fill: none;
      }

      .cls-2 {
        clip-path: url(#clip-path);
      }

      .cls-3, .cls-5 {
        stroke: #000;
      }

      .cls-3 {
        stroke-width: 1.5px;
      }

      .cls-4 {
        clip-path: url(#clip-path-2);
      }

      .cls-5 {
        stroke-width: 0.75px;
      }
    </style>
    <clipPath id="clip-path">
      <rect class="cls-1" width="6" height="122"/>
    </clipPath>
    <clipPath id="clip-path-2">
      <rect class="cls-1" width="3.231" height="117"/>
    </clipPath>
  </defs>
  <path id="Path_1004" data-name="Path 1004" d="M15.85,1a6.968,6.968,0,0,1,7.022,7V130.6l.5.3A14.989,14.989,0,0,1,16.05,159h-.3a3.466,3.466,0,0,1-.9-.1A14.967,14.967,0,0,1,1,144a14.679,14.679,0,0,1,7.323-12.8l.5-.3V8A6.968,6.968,0,0,1,15.85,1m0-1A8.036,8.036,0,0,0,7.824,8V130.3a15.925,15.925,0,0,0,7.022,29.6c.3,0,.6.1.9.1h.2a16.01,16.01,0,0,0,7.824-30V8A7.887,7.887,0,0,0,15.85,0Z" transform="translate(4438 -11334)"/>
  <g id="Group_2161" data-name="Group 2161" transform="translate(3703 -11660)">
    <g id="Repeat_Grid_159" data-name="Repeat Grid 159" class="cls-2" transform="translate(743.5 334)">
      <g transform="translate(-743.5 -336.5)">
        <line id="Line_1120" data-name="Line 1120" class="cls-3" x2="13" transform="translate(743.5 337.5)"/>
      </g>
      <g transform="translate(-743.5 -316.5)">
        <line id="Line_1120-2" data-name="Line 1120" class="cls-3" x2="13" transform="translate(743.5 337.5)"/>
      </g>
      <g transform="translate(-743.5 -296.5)">
        <line id="Line_1120-3" data-name="Line 1120" class="cls-3" x2="13" transform="translate(743.5 337.5)"/>
      </g>
      <g transform="translate(-743.5 -276.5)">
        <line id="Line_1120-4" data-name="Line 1120" class="cls-3" x2="13" transform="translate(743.5 337.5)"/>
      </g>
      <g transform="translate(-743.5 -256.5)">
        <line id="Line_1120-5" data-name="Line 1120" class="cls-3" x2="13" transform="translate(743.5 337.5)"/>
      </g>
      <g transform="translate(-743.5 -236.5)">
        <line id="Line_1120-6" data-name="Line 1120" class="cls-3" x2="13" transform="translate(743.5 337.5)"/>
      </g>
      <g transform="translate(-743.5 -216.5)">
        <line id="Line_1120-7" data-name="Line 1120" class="cls-3" x2="13" transform="translate(743.5 337.5)"/>
      </g>
    </g>
    <g id="Repeat_Grid_160" data-name="Repeat Grid 160" class="cls-4" transform="translate(743.5 338)">
      <g transform="translate(-743.5 -338.5)">
        <line id="Line_1121" data-name="Line 1121" class="cls-5" x2="7" transform="translate(743.5 339.5)"/>
      </g>
      <g transform="translate(-743.5 -334.5)">
        <line id="Line_1121-2" data-name="Line 1121" class="cls-5" x2="7" transform="translate(743.5 339.5)"/>
      </g>
      <g transform="translate(-743.5 -330.5)">
        <line id="Line_1121-3" data-name="Line 1121" class="cls-5" x2="7" transform="translate(743.5 339.5)"/>
      </g>
      <g transform="translate(-743.5 -326.5)">
        <line id="Line_1121-4" data-name="Line 1121" class="cls-5" x2="7" transform="translate(743.5 339.5)"/>
      </g>
      <g transform="translate(-743.5 -322.5)">
        <line id="Line_1121-5" data-name="Line 1121" class="cls-5" x2="7" transform="translate(743.5 339.5)"/>
      </g>
      <g transform="translate(-743.5 -318.5)">
        <line id="Line_1121-6" data-name="Line 1121" class="cls-5" x2="7" transform="translate(743.5 339.5)"/>
      </g>
      <g transform="translate(-743.5 -314.5)">
        <line id="Line_1121-7" data-name="Line 1121" class="cls-5" x2="7" transform="translate(743.5 339.5)"/>
      </g>
      <g transform="translate(-743.5 -310.5)">
        <line id="Line_1121-8" data-name="Line 1121" class="cls-5" x2="7" transform="translate(743.5 339.5)"/>
      </g>
      <g transform="translate(-743.5 -306.5)">
        <line id="Line_1121-9" data-name="Line 1121" class="cls-5" x2="7" transform="translate(743.5 339.5)"/>
      </g>
      <g transform="translate(-743.5 -302.5)">
        <line id="Line_1121-10" data-name="Line 1121" class="cls-5" x2="7" transform="translate(743.5 339.5)"/>
      </g>
      <g transform="translate(-743.5 -298.5)">
        <line id="Line_1121-11" data-name="Line 1121" class="cls-5" x2="7" transform="translate(743.5 339.5)"/>
      </g>
      <g transform="translate(-743.5 -294.5)">
        <line id="Line_1121-12" data-name="Line 1121" class="cls-5" x2="7" transform="translate(743.5 339.5)"/>
      </g>
      <g transform="translate(-743.5 -290.5)">
        <line id="Line_1121-13" data-name="Line 1121" class="cls-5" x2="7" transform="translate(743.5 339.5)"/>
      </g>
      <g transform="translate(-743.5 -286.5)">
        <line id="Line_1121-14" data-name="Line 1121" class="cls-5" x2="7" transform="translate(743.5 339.5)"/>
      </g>
      <g transform="translate(-743.5 -282.5)">
        <line id="Line_1121-15" data-name="Line 1121" class="cls-5" x2="7" transform="translate(743.5 339.5)"/>
      </g>
      <g transform="translate(-743.5 -278.5)">
        <line id="Line_1121-16" data-name="Line 1121" class="cls-5" x2="7" transform="translate(743.5 339.5)"/>
      </g>
      <g transform="translate(-743.5 -274.5)">
        <line id="Line_1121-17" data-name="Line 1121" class="cls-5" x2="7" transform="translate(743.5 339.5)"/>
      </g>
      <g transform="translate(-743.5 -270.5)">
        <line id="Line_1121-18" data-name="Line 1121" class="cls-5" x2="7" transform="translate(743.5 339.5)"/>
      </g>
      <g transform="translate(-743.5 -266.5)">
        <line id="Line_1121-19" data-name="Line 1121" class="cls-5" x2="7" transform="translate(743.5 339.5)"/>
      </g>
      <g transform="translate(-743.5 -262.5)">
        <line id="Line_1121-20" data-name="Line 1121" class="cls-5" x2="7" transform="translate(743.5 339.5)"/>
      </g>
      <g transform="translate(-743.5 -258.5)">
        <line id="Line_1121-21" data-name="Line 1121" class="cls-5" x2="7" transform="translate(743.5 339.5)"/>
      </g>
      <g transform="translate(-743.5 -254.5)">
        <line id="Line_1121-22" data-name="Line 1121" class="cls-5" x2="7" transform="translate(743.5 339.5)"/>
      </g>
      <g transform="translate(-743.5 -250.5)">
        <line id="Line_1121-23" data-name="Line 1121" class="cls-5" x2="7" transform="translate(743.5 339.5)"/>
      </g>
      <g transform="translate(-743.5 -246.5)">
        <line id="Line_1121-24" data-name="Line 1121" class="cls-5" x2="7" transform="translate(743.5 339.5)"/>
      </g>
      <g transform="translate(-743.5 -242.5)">
        <line id="Line_1121-25" data-name="Line 1121" class="cls-5" x2="7" transform="translate(743.5 339.5)"/>
      </g>
      <g transform="translate(-743.5 -238.5)">
        <line id="Line_1121-26" data-name="Line 1121" class="cls-5" x2="7" transform="translate(743.5 339.5)"/>
      </g>
      <g transform="translate(-743.5 -234.5)">
        <line id="Line_1121-27" data-name="Line 1121" class="cls-5" x2="7" transform="translate(743.5 339.5)"/>
      </g>
      <g transform="translate(-743.5 -230.5)">
        <line id="Line_1121-28" data-name="Line 1121" class="cls-5" x2="7" transform="translate(743.5 339.5)"/>
      </g>
      <g transform="translate(-743.5 -226.5)">
        <line id="Line_1121-29" data-name="Line 1121" class="cls-5" x2="7" transform="translate(743.5 339.5)"/>
      </g>
      <g transform="translate(-743.5 -222.5)">
        <line id="Line_1121-30" data-name="Line 1121" class="cls-5" x2="7" transform="translate(743.5 339.5)"/>
      </g>
    </g>
  </g>
</svg>
