<svg xmlns="http://www.w3.org/2000/svg" viewBox="-4403 -216 33.092 28">
  <defs>
    <style>
      .cls-1 {
        fill: #3e3e3e;
      }
    </style>
  </defs>
  <g id="系统设置-2" transform="translate(-4404.468 -295.255)">
    <path id="Path_1126" data-name="Path 1126" class="cls-1" d="M33.411,79.256H2.617A1.15,1.15,0,0,0,1.468,80.4v25.7a1.149,1.149,0,0,0,1.149,1.149H33.411a1.149,1.149,0,0,0,1.149-1.149V80.4a1.149,1.149,0,0,0-1.149-1.149Zm-3.446,2.332a1.161,1.161,0,1,1-1.16,1.162,1.162,1.162,0,0,1,1.16-1.162Zm-4.137,0a1.161,1.161,0,1,1-1.161,1.162,1.161,1.161,0,0,1,1.161-1.162Zm-4.136,0a1.161,1.161,0,1,1-1.161,1.162,1.161,1.161,0,0,1,1.161-1.162Zm10.57,23.371H3.766V86h28.5v18.961Z"/>
    <path id="Path_1127" data-name="Path 1127" class="cls-1" d="M132.027,324.182h-1.246a5.6,5.6,0,0,0-.52-1.245l.9-.9a1.034,1.034,0,0,0,0-1.461l-.73-.73a1.034,1.034,0,0,0-1.461,0l-.914.914a5.607,5.607,0,0,0-1.165-.472v-1.245a1.028,1.028,0,0,0-1.028-1.028h-1.028a1.028,1.028,0,0,0-1.028,1.028v1.245a5.621,5.621,0,0,0-1.2.5l-.938-.938a1.034,1.034,0,0,0-1.461,0l-.731.73a1.034,1.034,0,0,0,0,1.461l.938.938a5.625,5.625,0,0,0-.5,1.206h-1.244a1.027,1.027,0,0,0-1.027,1.027v1.027a1.028,1.028,0,0,0,1.027,1.028h1.246a5.644,5.644,0,0,0,.471,1.165l-.914.913a1.034,1.034,0,0,0,0,1.461l.731.73a1.034,1.034,0,0,0,1.461,0l.9-.9a5.6,5.6,0,0,0,1.245.52V332.4a1.027,1.027,0,0,0,1.028,1.027h1.028a1.028,1.028,0,0,0,1.028-1.027v-1.246a5.62,5.62,0,0,0,1.2-.5l.874.874a1.034,1.034,0,0,0,1.461,0l.73-.73a1.034,1.034,0,0,0,0-1.461l-.874-.874a5.636,5.636,0,0,0,.5-1.2h1.246a1.028,1.028,0,0,0,1.027-1.028v-1.027a1.028,1.028,0,0,0-1.028-1.026Zm-6.679,4.624a3.082,3.082,0,1,1,3.082-3.082,3.083,3.083,0,0,1-3.082,3.082Zm0-4.624a1.541,1.541,0,1,0,1.541,1.541,1.541,1.541,0,0,0-1.541-1.541Z" transform="translate(-112.41 -231.024)"/>
    <path id="Path_1128" data-name="Path 1128" class="cls-1" d="M590.465,503h-.8a3.58,3.58,0,0,0-.332-.8l.574-.574a.661.661,0,0,0,0-.934l-.467-.467a.661.661,0,0,0-.934,0l-.584.584a3.614,3.614,0,0,0-.744-.3v-.8a.657.657,0,0,0-.656-.657h-.656a.657.657,0,0,0-.656.657v.8a3.61,3.61,0,0,0-.77.317l-.6-.6a.661.661,0,0,0-.933,0l-.467.467a.661.661,0,0,0,0,.934l.6.6a3.6,3.6,0,0,0-.317.77h-.8a.657.657,0,0,0-.656.656v.656a.657.657,0,0,0,.656.657h.8a3.571,3.571,0,0,0,.3.744l-.584.583a.66.66,0,0,0,0,.934l.467.467a.661.661,0,0,0,.933,0l.574-.574a3.559,3.559,0,0,0,.8.332v.8a.657.657,0,0,0,.656.656h.656a.657.657,0,0,0,.656-.656v-.8a3.613,3.613,0,0,0,.77-.317l.558.558a.661.661,0,0,0,.934,0l.467-.467a.661.661,0,0,0,0-.934l-.558-.558a3.606,3.606,0,0,0,.317-.77h.8a.657.657,0,0,0,.656-.657v-.656a.657.657,0,0,0-.656-.656Zm-4.267,2.953a1.969,1.969,0,1,1,1.969-1.969,1.969,1.969,0,0,1-1.969,1.969Zm0-2.953a.985.985,0,1,0,.985.985A.985.985,0,0,0,586.2,503Z" transform="translate(-561.022 -406.204)"/>
  </g>
</svg>
