<svg xmlns="http://www.w3.org/2000/svg" viewBox="-4405 -602.148 30.212 28">
  <defs>
    <style>
      .cls-1 {
        fill: #0000a0;
      }
    </style>
  </defs>
  <path id="首页" class="cls-1" d="M29.718,14.552,17.05.816a2.736,2.736,0,0,0-3.9,0L.5,14.552a1.7,1.7,0,0,0,1.193,2.9H4.109a.242.242,0,0,1,.242.242v7.554A2.768,2.768,0,0,0,7.1,28h5.286c.709,0,.717-.78.717-1.349V19.994h4v6.642c0,.608,0,1.356.717,1.356h5.286a2.768,2.768,0,0,0,2.752-2.768V17.678a.242.242,0,0,1,.242-.242h2.425a1.69,1.69,0,0,0,1.193-2.884Zm-.967,1.286a.234.234,0,0,1-.226.148H26.1a1.684,1.684,0,0,0-1.676,1.692v7.554a1.325,1.325,0,0,1-1.318,1.31H18.547V19.276a.725.725,0,0,0-.717-.725H12.372a.725.725,0,0,0-.717.725v7.266H7.1a1.325,1.325,0,0,1-1.318-1.325V17.678a1.684,1.684,0,0,0-1.676-1.692H1.684a.226.226,0,0,1-.226-.148.234.234,0,0,1,.055-.265L14.173,1.868a1.31,1.31,0,0,1,1.855,0L28.7,15.573a.234.234,0,0,1,.055.265Z" transform="translate(-4405 -602.148)"/>
</svg>
