<svg xmlns="http://www.w3.org/2000/svg" viewBox="-3701 -636 24 22.154">
  <defs>
    <style>
      .cls-1 {
        fill: #fff;
      }
    </style>
  </defs>
  <path id="Path_1061" data-name="Path 1061" class="cls-1" d="M3.692,2.11V4.22H.264V2.11Zm9.758,7.912v2.11H0v-2.11ZM5.538,17.934v2.11H0v-2.11ZM8.967,0a.969.969,0,0,1,.791.264.969.969,0,0,1,.264.791V5.011A.932.932,0,0,1,8.967,6.066H5.011A.932.932,0,0,1,3.956,5.011V1.055A.969.969,0,0,1,4.22.264.969.969,0,0,1,5.011,0Zm2.11,16.088a.932.932,0,0,1,1.055,1.055V21.1a.932.932,0,0,1-1.055,1.055H7.121A.932.932,0,0,1,6.066,21.1V17.143a.932.932,0,0,1,1.055-1.055ZM24,2.11V4.22H10.549V2.11Zm0,15.824v2.11H12.659v-2.11ZM18.989,8.176a.932.932,0,0,1,1.055,1.055v3.956a.932.932,0,0,1-1.055,1.055H15.033a.932.932,0,0,1-1.055-1.055V9.231a.932.932,0,0,1,1.055-1.055h3.956ZM24,10.022v2.11H20.571v-2.11Z" transform="translate(-3701 -636)"/>
</svg>
