<svg xmlns="http://www.w3.org/2000/svg" viewBox="-2647 -79 28 28">
  <defs>
    <style>
      .cls-1 {
        fill: #fff;
      }
    </style>
  </defs>
  <path id="package_tracking_1_" class="cls-1" d="M4.1,23.911a14,14,0,0,0,23.9-10,13.8,13.8,0,0,0-4.1-9.769A13.706,13.706,0,0,0,14,0h0A14.01,14.01,0,0,0,4.1,23.911ZM5.8,5.793a11.7,11.7,0,0,1,16.5,0,11.39,11.39,0,0,1,3.415,8.122A11.675,11.675,0,0,1,5.8,22.207a11.57,11.57,0,0,1,0-16.414Zm-.74,10.9A9.606,9.606,0,0,0,7.4,20.617a.4.4,0,0,0,.569-.568,8.342,8.342,0,0,1-2.106-3.521,1.676,1.676,0,0,0,.911-1.477A1.592,1.592,0,0,0,5.52,13.46,8.507,8.507,0,0,1,20.033,8.008l.285.284a.958.958,0,0,0-.171.568A1.14,1.14,0,0,0,21.285,10h.228a8.4,8.4,0,0,1,.967,3.067,1.647,1.647,0,0,0-.228,3.124,8.615,8.615,0,0,1-1.423,3.01l-1.48-1.533a6.53,6.53,0,0,0,1.138-3.635A6.4,6.4,0,0,0,18.61,9.485a6.129,6.129,0,0,0-1.935-1.306V8.122a1.65,1.65,0,0,0-1.65-1.647,1.709,1.709,0,0,0-1.593,1.193A6.107,6.107,0,0,0,9.447,9.542a6.435,6.435,0,0,0,0,9.087.4.4,0,1,0,.569-.568,5.614,5.614,0,0,1,0-7.951,5.462,5.462,0,0,1,3.358-1.59,1.594,1.594,0,0,0,1.593,1.249,1.533,1.533,0,0,0,1.366-.8,5.13,5.13,0,0,1,1.593,1.136,5.679,5.679,0,0,1,1.65,3.976,5.382,5.382,0,0,1-.911,3.067l-3.016-3.01h0a1.65,1.65,0,0,0-3.3,0,1.669,1.669,0,0,0,1.537,1.647l5.976,5.963a1.206,1.206,0,1,0,1.707-1.7l-.228-.227a10.37,10.37,0,0,0,1.707-3.465,1.658,1.658,0,0,0,1.423-1.647,1.706,1.706,0,0,0-1.2-1.59A10.091,10.091,0,0,0,22.2,9.6a1.216,1.216,0,0,0,.228-.682,1.14,1.14,0,0,0-1.138-1.136.723.723,0,0,0-.341.057,2.471,2.471,0,0,1-.341-.4,9.356,9.356,0,0,0-13.2,0,9.206,9.206,0,0,0-2.732,6.077,1.653,1.653,0,0,0-1.2,1.59A1.76,1.76,0,0,0,5.065,16.7Z" transform="translate(-2647 -79)"/>
</svg>
