<svg xmlns="http://www.w3.org/2000/svg" viewBox="-3266.001 780.5 13.665 22.001">
  <defs>
    <style>
      .cls-1 {
        fill: #fff;
      }
    </style>
  </defs>
  <path id="Subtraction_2" data-name="Subtraction 2" class="cls-1" d="M-5963.169,22h0c-.068-.114-6.831-11.454-6.831-15.167A6.84,6.84,0,0,1-5963.169,0a6.84,6.84,0,0,1,6.833,6.832c0,3.712-6.763,15.053-6.832,15.167Zm0-19.914a4.18,4.18,0,0,0-4.175,4.176,4.18,4.18,0,0,0,4.175,4.176,4.18,4.18,0,0,0,4.174-4.176A4.18,4.18,0,0,0-5963.167,2.087Z" transform="translate(2704 780.5)"/>
</svg>
