<svg xmlns="http://www.w3.org/2000/svg" viewBox="18785 -6412.243 24 20">
  <defs>
    <style>
      .cls-1 {
        fill: #2f852a;
      }

      .cls-2, .cls-4 {
        fill: none;
      }

      .cls-2 {
        stroke: #2f852a;
      }

      .cls-3 {
        stroke: none;
      }
    </style>
  </defs>
  <g id="Group_2348" data-name="Group 2348" transform="translate(18616 -6511.243)">
    <g id="Group_1851" data-name="Group 1851" transform="translate(172 102)">
      <path id="Path_7" data-name="Path 7" class="cls-1" d="M17.438,1.165h-.683l.161-.4a1.112,1.112,0,0,0-.121-.522A.573.573,0,0,0,16.313,0H4.821A3.338,3.338,0,0,0,1.607,2.411,1.846,1.846,0,0,0,.2,4.179,1.766,1.766,0,0,0,1.607,5.906,3.339,3.339,0,0,0,4.862,8.317H7.915v3.415H2.33A1.836,1.836,0,0,0,.563,10.487.549.549,0,0,0,0,11.049V13.54a.549.549,0,0,0,.562.563A1.875,1.875,0,0,0,2.33,12.857H8.438A.549.549,0,0,0,9,12.295V8.317h4.781a.572.572,0,0,0,.522-.362l.281-.763h2.853A.549.549,0,0,0,18,6.629v-4.9A.575.575,0,0,0,17.438,1.165ZM4.821,7.232a2.2,2.2,0,0,1-2.25-2.17V3.254a2.2,2.2,0,0,1,2.25-2.17H15.509L13.661,6.308a.571.571,0,0,0-.08.241l-.2.683ZM16.875,6.067H14.987L16.313,2.25h.563Z"/>
      <path id="Path_8" data-name="Path 8" class="cls-1" d="M26.066,10.7a1.326,1.326,0,1,0,1.366,1.326A1.347,1.347,0,0,0,26.066,10.7Z" transform="translate(-14.776 -6.401)"/>
    </g>
    <g id="Rectangle_1119" data-name="Rectangle 1119" class="cls-2" transform="translate(169 99)">
      <rect class="cls-3" width="24" height="20" rx="2"/>
      <rect class="cls-4" x="0.5" y="0.5" width="23" height="19" rx="1.5"/>
    </g>
  </g>
</svg>
