<svg xmlns="http://www.w3.org/2000/svg" viewBox="-440 -1152 80 80">
  <defs>
    <style>
      .cls-1 {
        fill: #ff7600;
      }
    </style>
  </defs>
  <g id="Group_2871" data-name="Group 2871" transform="translate(-587 -1415)">
    <g id="шо╛шоб" transform="translate(76.247 193.854)">
      <path id="Path_1197" data-name="Path 1197" class="cls-1" d="M150.59,158.157a1.757,1.757,0,0,1-1.246-.516l-17.017-17.017a1.762,1.762,0,0,1,0-2.492L183.55,86.909a6,6,0,0,1,4.2-1.769,5.332,5.332,0,0,1,3.8,1.552l11.723,11.723a5.326,5.326,0,0,1,1.547,4.026,5.954,5.954,0,0,1-1.765,3.977l-51.223,51.223a1.757,1.757,0,0,1-1.246.516Zm-14.525-18.779L150.59,153.9l49.977-49.978a2.44,2.44,0,0,0,.735-1.624,1.84,1.84,0,0,0-.518-1.4L189.061,89.184a1.832,1.832,0,0,0-1.311-.52,2.451,2.451,0,0,0-1.709.737l-49.978,49.978Z" transform="translate(-55.524 -14.545)"/>
      <path id="Path_1198" data-name="Path 1198" class="cls-1" d="M96.707,858.842a1.762,1.762,0,0,1-.283-3.5L116.781,852a1.762,1.762,0,1,1,.571,3.477l-20.358,3.34a1.779,1.779,0,0,1-.287.024Z" transform="translate(-22.001 -711.888)"/>
      <path id="Path_1199" data-name="Path 1199" class="cls-1" d="M96.707,858.842a1.762,1.762,0,0,1-.283-3.5L116.781,852a1.762,1.762,0,1,1,.571,3.477l-20.358,3.34a1.779,1.779,0,0,1-.287.024Z" transform="translate(-22.001 -711.888)"/>
      <path id="Path_1200" data-name="Path 1200" class="cls-1" d="M96.711,688.08a1.764,1.764,0,0,1-1.741-2.047l3.34-20.358a1.762,1.762,0,0,1,3.477.571L98.447,686.6A1.762,1.762,0,0,1,96.711,688.08Z" transform="translate(-22.001 -541.126)"/>
      <path id="Path_1201" data-name="Path 1201" class="cls-1" d="M96.711,244.169a1.764,1.764,0,0,1-1.741-2.047l3.34-20.358a1.762,1.762,0,0,1,3.477.571l-3.34,20.358a1.762,1.762,0,0,1-1.737,1.477ZM161.3,196.591a1.756,1.756,0,0,1-1.246-.516l-17.017-17.017a1.762,1.762,0,0,1,2.492-2.492l17.017,17.017a1.762,1.762,0,0,1-1.246,3.008ZM146.451,239.4A1.762,1.762,0,0,1,145.2,236.4l9.359-9.359a1.762,1.762,0,0,1,2.492,2.492l-9.359,9.359A1.756,1.756,0,0,1,146.451,239.4Zm-6.334-6.334a1.762,1.762,0,0,1-1.246-3.008l9.359-9.359a1.762,1.762,0,0,1,2.492,2.492l-9.359,9.359a1.756,1.756,0,0,1-1.246.516Z" transform="translate(-22.001 -97.216)"/>
      <path id="Path_1202" data-name="Path 1202" class="cls-1" d="M202.775,301.493a5.47,5.47,0,0,1-3.893-1.613l-19.841-19.841a1.762,1.762,0,0,1,0-2.492l17.583-17.583a1.762,1.762,0,0,1,2.492,0l19.841,19.841a5.505,5.505,0,0,1,0,7.786L206.668,299.88a5.469,5.469,0,0,1-3.893,1.613Zm-20-22.7,18.6,18.6a1.981,1.981,0,0,0,2.8,0L216.465,285.1a1.981,1.981,0,0,0,0-2.8l-18.6-18.6-15.092,15.092Zm-33.489-29.235a1.762,1.762,0,0,1-1.246-3.008l9.359-9.359a1.762,1.762,0,1,1,2.492,2.492l-9.359,9.359a1.757,1.757,0,0,1-1.246.516Zm6.334,6.334a1.762,1.762,0,0,1-1.246-3.008l9.359-9.359a1.762,1.762,0,0,1,2.492,2.492l-9.359,9.359A1.757,1.757,0,0,1,155.623,255.892Z" transform="translate(-69.817 -152.347)"/>
      <path id="Path_1203" data-name="Path 1203" class="cls-1" d="M93.453,111.191a1.762,1.762,0,0,1-1.246-.516L72.365,90.834a5.506,5.506,0,0,1,0-7.786L84.655,70.758a5.47,5.47,0,0,1,3.893-1.612h0a5.47,5.47,0,0,1,3.893,1.612L112.282,90.6a1.762,1.762,0,0,1,0,2.492L94.7,110.675A1.762,1.762,0,0,1,93.453,111.191Zm-4.9-38.521a1.969,1.969,0,0,0-1.4.58L74.857,85.54a1.982,1.982,0,0,0,0,2.8l18.6,18.6,15.092-15.092-18.6-18.6a1.969,1.969,0,0,0-1.4-.58Z"/>
    </g>
  </g>
</svg>
