<svg xmlns="http://www.w3.org/2000/svg" viewBox="-4395 -345 33.182 28">
  <defs>
    <style>
      .cls-1 {
        fill: #3e3e3e;
      }
    </style>
  </defs>
  <path id="_6生产管理" data-name="6生产管理" class="cls-1" d="M116.963,170.909V178.9a.558.558,0,0,0,.155.389.518.518,0,0,0,.374.161h3.892a.518.518,0,0,0,.374-.161.559.559,0,0,0,.155-.389V168.25l-3.957,3.538-.994-.879Zm-16.63,7.991a.559.559,0,0,0,.155.389.517.517,0,0,0,.374.161h3.891a.517.517,0,0,0,.374-.161.558.558,0,0,0,.155-.389v-8.152l-4.95,4.24V178.9Zm8.314-11.035V178.9a.559.559,0,0,0,.155.389.518.518,0,0,0,.374.161h3.892a.518.518,0,0,0,.374-.161.559.559,0,0,0,.155-.389V167.933l-2.474-2.188-2.477,2.119ZM125.278,178.9a.558.558,0,0,0,.155.389.518.518,0,0,0,.374.161H129.7a.517.517,0,0,0,.374-.161.559.559,0,0,0,.155-.389V160.814l-4.952,4.428V178.9Zm-.854-27.45a.177.177,0,0,0-.163.114.189.189,0,0,0,.04.2l3.72,3.8-10.064,9-6.832-6.044L100.3,167.787v4l10.819-9.268,6.832,6.043L130.113,157.7l3.074,3.14a.171.171,0,0,0,.192.038.183.183,0,0,0,.108-.169v-9.073a.186.186,0,0,0-.052-.13.172.172,0,0,0-.125-.054Zm0,0" transform="translate(-4495.305 -496.449)"/>
</svg>
