<?xml version="1.0" encoding="utf-8"?>
<!-- Generator: Adobe Illustrator 21.1.0, SVG Export Plug-In . SVG Version: 6.00 Build 0)  -->
<svg version="1.1" id="图层_1" xmlns="http://www.w3.org/2000/svg" xmlns:xlink="http://www.w3.org/1999/xlink" x="0px" y="0px"
	 viewBox="0 0 101 9" style="enable-background:new 0 0 101 9;" xml:space="preserve">
<style type="text/css">
	.st0{fill:url(#Path_1008_1_);}
	.st1{fill:#FFFFFF;stroke:#000000;stroke-miterlimit:10;}
</style>
<g id="Group_2313" transform="translate(3691 -8601)">
	<g id="Group_2312">
		
			<linearGradient id="Path_1008_1_" gradientUnits="userSpaceOnUse" x1="-4429.625" y1="9180.2793" x2="-4429.625" y2="9179.7764" gradientTransform="matrix(4.898587e-16 -8 -99.4 -6.086495e-15 908829.3125 -26831.5)">
			<stop  offset="0" style="stop-color:#B3B3B3"/>
			<stop  offset="0.103" style="stop-color:#BFBFBF"/>
			<stop  offset="0.29" style="stop-color:#DFDFDF"/>
			<stop  offset="0.45" style="stop-color:#FFFFFF"/>
			<stop  offset="0.511" style="stop-color:#F0F0F0"/>
			<stop  offset="0.672" style="stop-color:#CFCFCF"/>
			<stop  offset="0.805" style="stop-color:#BABABA"/>
			<stop  offset="0.893" style="stop-color:#B3B3B3"/>
			<stop  offset="0.896" style="stop-color:#BD9B9B"/>
			<stop  offset="0.902" style="stop-color:#CC7777"/>
			<stop  offset="0.908" style="stop-color:#DA5757"/>
			<stop  offset="0.914" style="stop-color:#E63B3B"/>
			<stop  offset="0.922" style="stop-color:#EF2525"/>
			<stop  offset="0.931" style="stop-color:#F61414"/>
			<stop  offset="0.942" style="stop-color:#FB0909"/>
			<stop  offset="0.957" style="stop-color:#FE0202"/>
			<stop  offset="1" style="stop-color:#FF0000"/>
		</linearGradient>
		<path id="Path_1008" class="st0" d="M-3640.5,8605.5c0,1-2,2-5,2c-4.2,0-40.9-1-45-2c4.1-1.1,40.7-2,45-2
			C-3642.5,8603.5-3640.5,8604.5-3640.5,8605.5z"/>
		<path id="Path_1009" d="M-3688.9,8605.5c8-1,39.6-1.8,43.4-1.8c3,0,4.8,1,4.8,1.8s-1.8,1.8-4.8,1.8
			C-3649.3,8607.3-3680.8,8606.5-3688.9,8605.5 M-3691,8605.5c0,1.3,42.6,2.3,45.5,2.3s5.3-1,5.3-2.3s-2.4-2.3-5.3-2.3
			S-3691,8604.2-3691,8605.5z"/>
	</g>
	<circle id="Ellipse_4" class="st1" cx="-3645.5" cy="8605.5" r="1"/>
</g>
</svg>
