<svg xmlns="http://www.w3.org/2000/svg" xmlns:xlink="http://www.w3.org/1999/xlink" viewBox="-880 -7044 72 160">
  <defs>
    <style>
      .cls-1, .cls-3, .cls-5 {
        fill: none;
      }

      .cls-2 {
        fill: #d0d0d0;
      }

      .cls-2, .cls-3, .cls-5 {
        stroke: #000;
      }

      .cls-4 {
        clip-path: url(#clip-path);
      }

      .cls-5 {
        stroke-width: 0.75px;
      }

      .cls-6 {
        stroke: none;
      }
    </style>
    <clipPath id="clip-path">
      <rect class="cls-1" width="8" height="154"/>
    </clipPath>
  </defs>
  <g id="Group_2509" data-name="Group 2509" transform="translate(1595 -6936)">
    <g id="Rectangle_3055" data-name="Rectangle 3055" class="cls-2" transform="translate(-2475 46)">
      <rect class="cls-6" width="72" height="6"/>
      <rect class="cls-1" x="0.5" y="0.5" width="71" height="5"/>
    </g>
    <g id="Rectangle_3056" data-name="Rectangle 3056" class="cls-3" transform="translate(-2469 -108)">
      <rect class="cls-6" width="60" height="155"/>
      <rect class="cls-1" x="0.5" y="0.5" width="59" height="154"/>
    </g>
    <g id="Group_2508" data-name="Group 2508" transform="translate(-2417.625 -106.5)">
      <g id="Repeat_Grid_159" data-name="Repeat Grid 159" class="cls-4" transform="translate(0.625 -0.5)">
        <g transform="translate(-743.5 -336.5)">
          <line id="Line_1120" data-name="Line 1120" class="cls-3" x2="13" transform="translate(743.5 337.5)"/>
        </g>
        <g transform="translate(-743.5 -317.5)">
          <line id="Line_1120-2" data-name="Line 1120" class="cls-3" x2="13" transform="translate(743.5 337.5)"/>
        </g>
        <g transform="translate(-743.5 -298.5)">
          <line id="Line_1120-3" data-name="Line 1120" class="cls-3" x2="13" transform="translate(743.5 337.5)"/>
        </g>
        <g transform="translate(-743.5 -279.5)">
          <line id="Line_1120-4" data-name="Line 1120" class="cls-3" x2="13" transform="translate(743.5 337.5)"/>
        </g>
        <g transform="translate(-743.5 -260.5)">
          <line id="Line_1120-5" data-name="Line 1120" class="cls-3" x2="13" transform="translate(743.5 337.5)"/>
        </g>
        <g transform="translate(-743.5 -241.5)">
          <line id="Line_1120-6" data-name="Line 1120" class="cls-3" x2="13" transform="translate(743.5 337.5)"/>
        </g>
        <g transform="translate(-743.5 -222.5)">
          <line id="Line_1120-7" data-name="Line 1120" class="cls-3" x2="13" transform="translate(743.5 337.5)"/>
        </g>
        <g transform="translate(-743.5 -203.5)">
          <line id="Line_1120-8" data-name="Line 1120" class="cls-3" x2="13" transform="translate(743.5 337.5)"/>
        </g>
        <g transform="translate(-743.5 -184.5)">
          <line id="Line_1120-9" data-name="Line 1120" class="cls-3" x2="13" transform="translate(743.5 337.5)"/>
        </g>
      </g>
      <g id="Group_2510" data-name="Group 2510" transform="translate(0 0.123)">
        <line id="Line_1121" data-name="Line 1121" class="cls-5" x2="4" transform="translate(4.625 0.5)"/>
        <line id="Line_1121-2" data-name="Line 1121" class="cls-5" x2="4" transform="translate(4.625 4.295)"/>
        <line id="Line_1121-3" data-name="Line 1121" class="cls-5" x2="4" transform="translate(4.625 8.09)"/>
        <line id="Line_1121-4" data-name="Line 1121" class="cls-5" x2="4" transform="translate(4.625 11.885)"/>
        <line id="Line_1121-5" data-name="Line 1121" class="cls-5" x2="4" transform="translate(4.625 15.679)"/>
        <line id="Line_1121-6" data-name="Line 1121" class="cls-5" x2="4" transform="translate(4.625 19.474)"/>
        <line id="Line_1121-7" data-name="Line 1121" class="cls-5" x2="4" transform="translate(4.625 23.269)"/>
        <line id="Line_1121-8" data-name="Line 1121" class="cls-5" x2="4" transform="translate(4.625 27.064)"/>
        <line id="Line_1121-9" data-name="Line 1121" class="cls-5" x2="4" transform="translate(4.625 30.859)"/>
        <line id="Line_1121-10" data-name="Line 1121" class="cls-5" x2="4" transform="translate(4.625 34.654)"/>
        <line id="Line_1121-11" data-name="Line 1121" class="cls-5" x2="4" transform="translate(4.625 38.449)"/>
        <line id="Line_1121-12" data-name="Line 1121" class="cls-5" x2="4" transform="translate(4.625 42.244)"/>
        <line id="Line_1121-13" data-name="Line 1121" class="cls-5" x2="4" transform="translate(4.625 46.038)"/>
        <line id="Line_1121-14" data-name="Line 1121" class="cls-5" x2="4" transform="translate(4.625 49.833)"/>
        <line id="Line_1121-15" data-name="Line 1121" class="cls-5" x2="4" transform="translate(4.625 53.628)"/>
        <line id="Line_1121-16" data-name="Line 1121" class="cls-5" x2="4" transform="translate(4.625 57.423)"/>
        <line id="Line_1121-17" data-name="Line 1121" class="cls-5" x2="4" transform="translate(4.625 61.218)"/>
        <line id="Line_1121-18" data-name="Line 1121" class="cls-5" x2="4" transform="translate(4.625 65.013)"/>
        <line id="Line_1121-19" data-name="Line 1121" class="cls-5" x2="4" transform="translate(4.625 68.808)"/>
        <line id="Line_1121-20" data-name="Line 1121" class="cls-5" x2="4" transform="translate(4.625 72.603)"/>
        <line id="Line_1121-21" data-name="Line 1121" class="cls-5" x2="4" transform="translate(4.625 76.397)"/>
        <line id="Line_1121-22" data-name="Line 1121" class="cls-5" x2="4" transform="translate(4.625 80.192)"/>
        <line id="Line_1121-23" data-name="Line 1121" class="cls-5" x2="4" transform="translate(4.625 83.987)"/>
        <line id="Line_1121-24" data-name="Line 1121" class="cls-5" x2="4" transform="translate(4.625 87.782)"/>
        <line id="Line_1121-25" data-name="Line 1121" class="cls-5" x2="4" transform="translate(4.625 91.577)"/>
        <line id="Line_1121-26" data-name="Line 1121" class="cls-5" x2="4" transform="translate(4.625 95.372)"/>
        <line id="Line_1121-27" data-name="Line 1121" class="cls-5" x2="4" transform="translate(4.625 99.167)"/>
        <line id="Line_1121-28" data-name="Line 1121" class="cls-5" x2="4" transform="translate(4.625 102.962)"/>
        <line id="Line_1121-29" data-name="Line 1121" class="cls-5" x2="4" transform="translate(4.625 106.756)"/>
        <line id="Line_1121-30" data-name="Line 1121" class="cls-5" x2="4" transform="translate(4.625 110.551)"/>
        <line id="Line_1121-31" data-name="Line 1121" class="cls-5" x2="4" transform="translate(4.625 114.346)"/>
        <line id="Line_1121-32" data-name="Line 1121" class="cls-5" x2="4" transform="translate(4.625 118.141)"/>
        <line id="Line_1121-33" data-name="Line 1121" class="cls-5" x2="4" transform="translate(4.625 121.936)"/>
        <line id="Line_1121-34" data-name="Line 1121" class="cls-5" x2="4" transform="translate(4.625 125.731)"/>
        <line id="Line_1121-35" data-name="Line 1121" class="cls-5" x2="4" transform="translate(4.625 129.526)"/>
        <line id="Line_1121-36" data-name="Line 1121" class="cls-5" x2="4" transform="translate(4.625 133.321)"/>
        <line id="Line_1121-37" data-name="Line 1121" class="cls-5" x2="4" transform="translate(4.625 137.115)"/>
        <line id="Line_1121-38" data-name="Line 1121" class="cls-5" x2="4" transform="translate(4.625 140.91)"/>
        <line id="Line_1121-39" data-name="Line 1121" class="cls-5" x2="4" transform="translate(4.625 144.705)"/>
        <line id="Line_1121-40" data-name="Line 1121" class="cls-5" x2="4" transform="translate(4.625 148.5)"/>
      </g>
    </g>
  </g>
</svg>
