<svg xmlns="http://www.w3.org/2000/svg" viewBox="3878.5 -8840 168 111">
  <defs>
    <style>
      .cls-1, .cls-2, .cls-5, .cls-6 {
        fill: none;
        stroke-miterlimit: 10;
      }

      .cls-1 {
        stroke: #8cc63f;
        stroke-width: 4px;
      }

      .cls-1, .cls-5, .cls-6 {
        stroke-linecap: round;
      }

      .cls-2, .cls-5, .cls-6 {
        stroke: #29abe2;
      }

      .cls-3 {
        fill: #534741;
      }

      .cls-4 {
        fill: #8cc63f;
      }

      .cls-5, .cls-6 {
        stroke-width: 3px;
      }

      .cls-6 {
        stroke-linejoin: round;
      }
    </style>
  </defs>
  <g id="Group_2616" data-name="Group 2616" transform="translate(3878.5 -8840)">
    <path id="Path_1105" data-name="Path 1105" class="cls-1" d="M98.4,81.4S93.9,94,97.9,102"/>
    <path id="Path_1106" data-name="Path 1106" class="cls-2" d="M145.3.8C111.3.8,80.2,12,57.7,30.1"/>
    <rect id="Rectangle_3225" data-name="Rectangle 3225" class="cls-3" width="22.7" height="100.9" transform="translate(145.3)"/>
    <rect id="Rectangle_3226" data-name="Rectangle 3226" class="cls-3" width="148" height="11.8" transform="translate(20 99.2)"/>
    <ellipse id="Ellipse_470" data-name="Ellipse 470" class="cls-4" cx="7.2" cy="13.8" rx="7.2" ry="13.8" transform="translate(71.773 68.718) rotate(-45)"/>
    <ellipse id="Ellipse_471" data-name="Ellipse 471" class="cls-4" cx="13.8" cy="7.2" rx="13.8" ry="7.2" transform="matrix(0.866, -0.5, 0.5, 0.866, 94.369, 76.077)"/>
    <g id="Group_2615" data-name="Group 2615">
      <path id="Path_1107" data-name="Path 1107" class="cls-5" d="M61.7,45.5c-9.9,0-10.4,9.9-23.4,9.9s-13-9.9-23.9-9.9c-5.5,0-9.2,2.5-12.9,4.9"/>
      <path id="Path_1108" data-name="Path 1108" class="cls-6" d="M61.4,41l6.8,4.5-6.8,4.4"/>
      <path id="Path_1109" data-name="Path 1109" class="cls-5" d="M61.7,61.7c-9.9,0-10.4,9.9-23.4,9.9s-13-9.9-23.9-9.9c-5.3,0-9.1,2.4-12.7,4.8"/>
      <path id="Path_1110" data-name="Path 1110" class="cls-6" d="M61.4,57.3l6.8,4.4-6.8,4.5"/>
      <path id="Path_1111" data-name="Path 1111" class="cls-5" d="M61.7,78c-9.9,0-10.4,9.9-23.4,9.9S25.3,78,14.4,78c-5.3,0-9,2.3-12.5,4.7"/>
      <path id="Path_1112" data-name="Path 1112" class="cls-6" d="M61.4,73.6,68.2,78l-6.8,4.4"/>
    </g>
  </g>
</svg>
