<svg xmlns="http://www.w3.org/2000/svg" viewBox="-1289.548 -7037.5 68.929 161.4">
  <defs>
    <style>
      .cls-1, .cls-2, .cls-3 {
        fill: none;
        stroke: #000;
      }

      .cls-1 {
        stroke-miterlimit: 10;
      }

      .cls-3 {
        stroke-width: 0.75px;
      }

      .cls-4, .cls-5 {
        font-size: 20px;
      }

      .cls-4 {
        font-family: HelveticaNeue, Helvetica Neue;
      }

      .cls-5 {
        font-family: PingFangSC-Regular, PingFang SC;
      }

      .cls-6 {
        font-size: 12px;
        font-family: HelveticaNeue-Bold, Helvetica Neue;
        font-weight: 700;
      }
    </style>
  </defs>
  <g id="Group_2652" data-name="Group 2652" transform="translate(107)">
    <path id="Path_1143" data-name="Path 1143" class="cls-1" d="M67.6,154.5,55.9,138.7V4.5a4.012,4.012,0,0,0-4-4h-35a4.012,4.012,0,0,0-4,4V138.7L1.3,154.5a4.026,4.026,0,0,0,3.2,6.4H64.4A4.055,4.055,0,0,0,67.6,154.5Z" transform="translate(-1396.526 -7037.5)"/>
    <g id="Group_2645" data-name="Group 2645" transform="translate(-107)">
      <line id="Line_1120" data-name="Line 1120" class="cls-2" x2="8" transform="translate(-1242 -7029)"/>
      <line id="Line_1120-2" data-name="Line 1120" class="cls-2" x2="8" transform="translate(-1242 -7010)"/>
      <line id="Line_1120-3" data-name="Line 1120" class="cls-2" x2="8" transform="translate(-1242 -6991)"/>
      <line id="Line_1120-4" data-name="Line 1120" class="cls-2" x2="8" transform="translate(-1242 -6972)"/>
      <line id="Line_1120-5" data-name="Line 1120" class="cls-2" x2="8" transform="translate(-1242 -6953)"/>
      <line id="Line_1120-6" data-name="Line 1120" class="cls-2" x2="8" transform="translate(-1242 -6934)"/>
      <line id="Line_1120-7" data-name="Line 1120" class="cls-2" x2="8" transform="translate(-1242 -6915)"/>
      <line id="Line_1120-8" data-name="Line 1120" class="cls-2" x2="8" transform="translate(-1240 -6896)"/>
      <line id="Line_1121" data-name="Line 1121" class="cls-3" x2="4" transform="translate(-1238 -7028.877)"/>
      <line id="Line_1121-2" data-name="Line 1121" class="cls-3" x2="4" transform="translate(-1238 -7025.082)"/>
      <line id="Line_1121-3" data-name="Line 1121" class="cls-3" x2="4" transform="translate(-1238 -7021.287)"/>
      <line id="Line_1121-4" data-name="Line 1121" class="cls-3" x2="4" transform="translate(-1238 -7017.492)"/>
      <line id="Line_1121-5" data-name="Line 1121" class="cls-3" x2="4" transform="translate(-1238 -7013.697)"/>
      <line id="Line_1121-6" data-name="Line 1121" class="cls-3" x2="4" transform="translate(-1238 -7009.903)"/>
      <line id="Line_1121-7" data-name="Line 1121" class="cls-3" x2="4" transform="translate(-1238 -7006.108)"/>
      <line id="Line_1121-8" data-name="Line 1121" class="cls-3" x2="4" transform="translate(-1238 -7002.313)"/>
      <line id="Line_1121-9" data-name="Line 1121" class="cls-3" x2="4" transform="translate(-1238 -6998.518)"/>
      <line id="Line_1121-10" data-name="Line 1121" class="cls-3" x2="4" transform="translate(-1238 -6994.723)"/>
      <line id="Line_1121-11" data-name="Line 1121" class="cls-3" x2="4" transform="translate(-1238 -6990.928)"/>
      <line id="Line_1121-12" data-name="Line 1121" class="cls-3" x2="4" transform="translate(-1238 -6987.133)"/>
      <line id="Line_1121-13" data-name="Line 1121" class="cls-3" x2="4" transform="translate(-1238 -6983.338)"/>
      <line id="Line_1121-14" data-name="Line 1121" class="cls-3" x2="4" transform="translate(-1238 -6979.543)"/>
      <line id="Line_1121-15" data-name="Line 1121" class="cls-3" x2="4" transform="translate(-1238 -6975.749)"/>
      <line id="Line_1121-16" data-name="Line 1121" class="cls-3" x2="4" transform="translate(-1238 -6971.954)"/>
      <line id="Line_1121-17" data-name="Line 1121" class="cls-3" x2="4" transform="translate(-1238 -6968.159)"/>
      <line id="Line_1121-18" data-name="Line 1121" class="cls-3" x2="4" transform="translate(-1238 -6964.364)"/>
      <line id="Line_1121-19" data-name="Line 1121" class="cls-3" x2="4" transform="translate(-1238 -6960.569)"/>
      <line id="Line_1121-20" data-name="Line 1121" class="cls-3" x2="4" transform="translate(-1238 -6956.774)"/>
      <line id="Line_1121-21" data-name="Line 1121" class="cls-3" x2="4" transform="translate(-1238 -6952.979)"/>
      <line id="Line_1121-22" data-name="Line 1121" class="cls-3" x2="4" transform="translate(-1238 -6949.185)"/>
      <line id="Line_1121-23" data-name="Line 1121" class="cls-3" x2="4" transform="translate(-1238 -6945.39)"/>
      <line id="Line_1121-24" data-name="Line 1121" class="cls-3" x2="4" transform="translate(-1238 -6941.595)"/>
      <line id="Line_1121-25" data-name="Line 1121" class="cls-3" x2="4" transform="translate(-1238 -6937.8)"/>
      <line id="Line_1121-26" data-name="Line 1121" class="cls-3" x2="4" transform="translate(-1238 -6934.005)"/>
      <line id="Line_1121-27" data-name="Line 1121" class="cls-3" x2="4" transform="translate(-1238 -6930.21)"/>
      <line id="Line_1121-28" data-name="Line 1121" class="cls-3" x2="4" transform="translate(-1238 -6926.416)"/>
      <line id="Line_1121-29" data-name="Line 1121" class="cls-3" x2="4" transform="translate(-1238 -6922.621)"/>
      <line id="Line_1121-30" data-name="Line 1121" class="cls-3" x2="4" transform="translate(-1238 -6918.826)"/>
      <line id="Line_1121-31" data-name="Line 1121" class="cls-3" x2="4" transform="translate(-1238 -6915.031)"/>
      <line id="Line_1121-32" data-name="Line 1121" class="cls-3" x2="4" transform="translate(-1238 -6911.236)"/>
      <line id="Line_1121-33" data-name="Line 1121" class="cls-3" x2="4" transform="translate(-1238 -6907.441)"/>
      <line id="Line_1121-34" data-name="Line 1121" class="cls-3" x2="4" transform="translate(-1238 -6903.646)"/>
      <line id="Line_1121-35" data-name="Line 1121" class="cls-3" x2="4" transform="translate(-1238 -6899.852)"/>
      <line id="Line_1121-36" data-name="Line 1121" class="cls-3" x2="4" transform="translate(-1233 -6892.262)"/>
      <line id="Line_1121-37" data-name="Line 1121" class="cls-3" x2="4" transform="translate(-1230 -6888.467)"/>
      <line id="Line_1121-38" data-name="Line 1121" class="cls-3" x2="4" transform="translate(-1227 -6884.672)"/>
      <line id="Line_1121-39" data-name="Line 1121" class="cls-3" x2="4" transform="translate(-1225 -6880.877)"/>
    </g>
    <g id="Group_2650" data-name="Group 2650" transform="translate(0 19)">
      <text id="N" class="cls-4" transform="translate(-1380 -6957)"><tspan x="0" y="0">N</tspan></text>
      <text id="氮" class="cls-5" transform="translate(-1380 -6980)"><tspan x="0" y="0">氮</tspan></text>
      <text id="_-" data-name="-" class="cls-6" transform="translate(-1366 -6967)"><tspan x="0" y="0">-</tspan></text>
    </g>
  </g>
</svg>
