<svg xmlns="http://www.w3.org/2000/svg" viewBox="-4404 -476 29.142 28">
  <defs>
    <style>
      .cls-1 {
        fill: #0000a0;
      }
    </style>
  </defs>
  <g id="Group_2874" data-name="Group 2874" transform="translate(-7527 -5463)">
    <g id="综合信息" transform="translate(3057.871 4886.209)">
      <path id="Path_1119" data-name="Path 1119" class="cls-1" d="M70.36,467.453H65.877a.748.748,0,0,0-.747.747v5.978a.748.748,0,0,0,.747.747H70.36a.749.749,0,0,0,.747-.747V468.2A.749.749,0,0,0,70.36,467.453Z" transform="translate(0 -354.707)"/>
      <path id="Path_1120" data-name="Path 1120" class="cls-1" d="M386.82,427.364l.988-9.145a8.836,8.836,0,1,0,8.714,7.37Z" transform="translate(-303.635 -307.078)"/>
      <path id="Path_1121" data-name="Path 1121" class="cls-1" d="M666.356,376.76a8.779,8.779,0,0,0-4.03-.971H662.3l-.987,9.145,9.7-1.775A8.8,8.8,0,0,0,666.356,376.76Zm-2.724.638a7.31,7.31,0,0,1,5.527,4.582l-6.143,1.124Z" transform="translate(-576.746 -266.031)"/>
      <path id="Path_1122" data-name="Path 1122" class="cls-1" d="M483.6,108.54v-7a.749.749,0,0,0-.747-.747h-4.483a.748.748,0,0,0-.747.747v8.35a11.031,11.031,0,0,1,5.353-1.38C483.188,108.508,483.394,108.528,483.6,108.54Z" transform="translate(-399.045)"/>
      <path id="Path_1123" data-name="Path 1123" class="cls-1" d="M275.86,288.886a11.123,11.123,0,0,1,1.494-1.191v-2.826a.749.749,0,0,0-.747-.747h-4.483a.748.748,0,0,0-.747.747v11.956a.748.748,0,0,0,.747.747h.277c-.012-.208-.032-.414-.032-.625a11.081,11.081,0,0,1,.5-3.307v-8.024h2.989v3.27Z" transform="translate(-199.522 -177.353)"/>
    </g>
  </g>
</svg>
