<svg xmlns="http://www.w3.org/2000/svg" viewBox="-4405 -539 29.34 28">
  <defs>
    <style>
      .cls-1 {
        fill: #0000a0;
      }
    </style>
  </defs>
  <g id="Group_2873" data-name="Group 2873" transform="translate(-7527 -5463)">
    <path id="gis" class="cls-1" d="M97.992,109.575l-3.071-4.582a1.264,1.264,0,0,0-1.121-.668H88.968a.762.762,0,0,0-.6.288s-.007.01-.01.013a.749.749,0,0,0,.588,1.217h4.433a.515.515,0,0,1,.423.221l2.06,3.031a.5.5,0,0,1-.423.787H71.576a.5.5,0,0,1-.4-.813l2.357-3.031a.506.506,0,0,1,.4-.2h4.116a.749.749,0,0,0,.588-1.217s-.007-.01-.01-.013a.767.767,0,0,0-.6-.288H73.549a1.273,1.273,0,0,0-1.084.6l-3.474,4.529-.033.053a1.251,1.251,0,0,0,.1,1.4,1.333,1.333,0,0,0,1.058.489H96.8a1.344,1.344,0,0,0,1.041-.453A1.256,1.256,0,0,0,97.992,109.575Zm-15.15-1.947a1.02,1.02,0,0,0,1.316,0c2.317-1.944,9.967-8.731,9.967-13.676a10.625,10.625,0,0,0-21.25,0C72.878,98.9,80.525,105.684,82.842,107.628Zm.615-19.207a4.717,4.717,0,1,1-4.75,4.717A4.736,4.736,0,0,1,83.457,88.421Z" transform="translate(3053.211 4840.6)"/>
  </g>
</svg>
