<svg xmlns="http://www.w3.org/2000/svg" viewBox="3163 -11304 148 111">
  <defs>
    <style>
      .cls-1, .cls-2, .cls-7 {
        fill: none;
      }

      .cls-1 {
        stroke: #8cc63f;
        stroke-width: 4px;
      }

      .cls-1, .cls-7 {
        stroke-linecap: round;
      }

      .cls-1, .cls-2, .cls-5, .cls-6, .cls-7 {
        stroke-miterlimit: 10;
      }

      .cls-2, .cls-5, .cls-6, .cls-7 {
        stroke: #29abe2;
      }

      .cls-3 {
        fill: #534741;
      }

      .cls-4 {
        fill: #8cc63f;
      }

      .cls-5 {
        fill: #999;
      }

      .cls-6 {
        fill: #b3b3b3;
      }

      .cls-7 {
        stroke-linejoin: round;
      }
    </style>
  </defs>
  <g id="Group_2628" data-name="Group 2628" transform="translate(3163 -11304)">
    <path id="Path_1128" data-name="Path 1128" class="cls-1" d="M78.5,81.4S74,94,78,102"/>
    <path id="Path_1129" data-name="Path 1129" class="cls-2" d="M125.3.8C57,.8.8,46,.8,101.8"/>
    <rect id="Rectangle_3233" data-name="Rectangle 3233" class="cls-3" width="22.7" height="100.9" transform="translate(125.3)"/>
    <rect id="Rectangle_3234" data-name="Rectangle 3234" class="cls-3" width="148" height="11.8" transform="translate(0 99.2)"/>
    <ellipse id="Ellipse_476" data-name="Ellipse 476" class="cls-4" cx="7.2" cy="13.8" rx="7.2" ry="13.8" transform="translate(51.786 68.748) rotate(-45)"/>
    <ellipse id="Ellipse_477" data-name="Ellipse 477" class="cls-4" cx="13.8" cy="7.2" rx="13.8" ry="7.2" transform="matrix(0.866, -0.5, 0.5, 0.866, 74.462, 76.049)"/>
    <g id="Group_2627" data-name="Group 2627">
      <path id="Path_1130" data-name="Path 1130" class="cls-2" d="M82.8,15.6V12.2a2.006,2.006,0,0,0-2-2H76.1a2.006,2.006,0,0,0-2,2v3.4A11.041,11.041,0,0,1,72,22.2a11.065,11.065,0,0,0-2.1,6.3,8.5,8.5,0,0,0,17,0,11.574,11.574,0,0,0-2.1-6.3A11.671,11.671,0,0,1,82.8,15.6Z"/>
      <path id="Path_1131" data-name="Path 1131" class="cls-5" d="M79.7,10.3a1.216,1.216,0,0,0-1.2-1.2,1.29,1.29,0,0,0-1.2,1.2"/>
      <path id="Path_1132" data-name="Path 1132" class="cls-6" d="M74.2,12.2v3.4a7.569,7.569,0,0,1-.1,1.5H83a7.569,7.569,0,0,1-.1-1.5V12.2a2.006,2.006,0,0,0-2-2H76.2A2,2,0,0,0,74.2,12.2Z"/>
      <path id="Path_1133" data-name="Path 1133" class="cls-7" d="M76,17.1"/>
      <path id="Path_1134" data-name="Path 1134" class="cls-7" d="M75.1,27.3l1.8,2.4,1.8-2.4,1.7,2.4,1.8-2.4"/>
    </g>
  </g>
</svg>
