<svg xmlns="http://www.w3.org/2000/svg" viewBox="3158 -10854 162 162">
  <defs>
    <style>
      .cls-1 {
        fill: #ffe900;
      }

      .cls-2, .cls-3 {
        fill: none;
        stroke: #000;
        stroke-miterlimit: 10;
      }

      .cls-2 {
        stroke-width: 2px;
      }
    </style>
  </defs>
  <g id="Group_2361" data-name="Group 2361" transform="translate(3158 -10854)">
    <g id="Group_2230" data-name="Group 2230">
      <path id="Path_1006" data-name="Path 1006" class="cls-1" d="M81,130.5A49.5,49.5,0,1,1,130.5,81,49.549,49.549,0,0,1,81,130.5Z"/>
      <path id="Path_1007" data-name="Path 1007" d="M81,32A49,49,0,1,1,32,81,49.08,49.08,0,0,1,81,32m0-1a50,50,0,1,0,50,50A50.018,50.018,0,0,0,81,31Z"/>
    </g>
    <g id="Group_2231" data-name="Group 2231">
      <line id="Line_1184" data-name="Line 1184" class="cls-2" y1="20" transform="translate(81)"/>
    </g>
    <g id="Group_2232" data-name="Group 2232">
      <line id="Line_1185" data-name="Line 1185" class="cls-3" y1="10" transform="translate(81 10)"/>
    </g>
    <g id="Group_2233" data-name="Group 2233">
      <line id="Line_1186" data-name="Line 1186" class="cls-3" x1="0.9" y1="9.9" transform="translate(74.8 10.3)"/>
    </g>
    <g id="Group_2234" data-name="Group 2234">
      <line id="Line_1187" data-name="Line 1187" class="cls-3" x1="1.7" y1="9.8" transform="translate(68.7 11.1)"/>
    </g>
    <g id="Group_2235" data-name="Group 2235">
      <line id="Line_1188" data-name="Line 1188" class="cls-3" x1="2.6" y1="9.7" transform="translate(62.6 12.4)"/>
    </g>
    <g id="Group_2236" data-name="Group 2236">
      <line id="Line_1189" data-name="Line 1189" class="cls-3" x1="3.4" y1="9.4" transform="translate(56.7 14.3)"/>
    </g>
    <g id="Group_2237" data-name="Group 2237">
      <line id="Line_1190" data-name="Line 1190" class="cls-3" x1="4.2" y1="9" transform="translate(51 16.7)"/>
    </g>
    <g id="Group_2238" data-name="Group 2238">
      <line id="Line_1191" data-name="Line 1191" class="cls-3" x1="5" y1="8.7" transform="translate(45.5 19.5)"/>
    </g>
    <g id="Group_2239" data-name="Group 2239">
      <line id="Line_1192" data-name="Line 1192" class="cls-3" x1="5.7" y1="8.2" transform="translate(40.3 22.8)"/>
    </g>
    <g id="Group_2240" data-name="Group 2240">
      <line id="Line_1193" data-name="Line 1193" class="cls-3" x1="6.4" y1="7.7" transform="translate(35.4 26.6)"/>
    </g>
    <g id="Group_2241" data-name="Group 2241">
      <line id="Line_1194" data-name="Line 1194" class="cls-3" x1="7.1" y1="7.1" transform="translate(30.8 30.8)"/>
    </g>
    <g id="Group_2242" data-name="Group 2242">
      <line id="Line_1195" data-name="Line 1195" class="cls-3" x1="7.7" y1="6.4" transform="translate(26.6 35.4)"/>
    </g>
    <g id="Group_2243" data-name="Group 2243">
      <line id="Line_1196" data-name="Line 1196" class="cls-3" x1="8.2" y1="5.7" transform="translate(22.8 40.3)"/>
    </g>
    <g id="Group_2244" data-name="Group 2244">
      <line id="Line_1197" data-name="Line 1197" class="cls-3" x1="8.7" y1="5" transform="translate(19.5 45.5)"/>
    </g>
    <g id="Group_2245" data-name="Group 2245">
      <line id="Line_1198" data-name="Line 1198" class="cls-3" x1="9" y1="4.2" transform="translate(16.7 51)"/>
    </g>
    <g id="Group_2246" data-name="Group 2246">
      <line id="Line_1199" data-name="Line 1199" class="cls-3" x1="9.4" y1="3.4" transform="translate(14.3 56.7)"/>
    </g>
    <g id="Group_2247" data-name="Group 2247">
      <line id="Line_1200" data-name="Line 1200" class="cls-3" x1="9.7" y1="2.6" transform="translate(12.4 62.6)"/>
    </g>
    <g id="Group_2248" data-name="Group 2248">
      <line id="Line_1201" data-name="Line 1201" class="cls-3" x1="9.8" y1="1.7" transform="translate(11.1 68.7)"/>
    </g>
    <g id="Group_2249" data-name="Group 2249">
      <line id="Line_1202" data-name="Line 1202" class="cls-3" x1="9.9" y1="0.9" transform="translate(10.3 74.8)"/>
    </g>
    <g id="Group_2250" data-name="Group 2250">
      <line id="Line_1203" data-name="Line 1203" class="cls-3" x1="10" transform="translate(10 81)"/>
    </g>
    <g id="Group_2251" data-name="Group 2251">
      <line id="Line_1204" data-name="Line 1204" class="cls-3" x1="9.9" y2="0.9" transform="translate(10.3 86.3)"/>
    </g>
    <g id="Group_2252" data-name="Group 2252">
      <line id="Line_1205" data-name="Line 1205" class="cls-3" x1="9.8" y2="1.7" transform="translate(11.1 91.6)"/>
    </g>
    <g id="Group_2253" data-name="Group 2253">
      <line id="Line_1206" data-name="Line 1206" class="cls-3" x1="9.7" y2="2.6" transform="translate(12.4 96.8)"/>
    </g>
    <g id="Group_2254" data-name="Group 2254">
      <line id="Line_1207" data-name="Line 1207" class="cls-3" x1="9.4" y2="3.4" transform="translate(14.3 101.9)"/>
    </g>
    <g id="Group_2255" data-name="Group 2255">
      <line id="Line_1208" data-name="Line 1208" class="cls-3" x1="9" y2="4.2" transform="translate(16.7 106.8)"/>
    </g>
    <g id="Group_2256" data-name="Group 2256">
      <line id="Line_1209" data-name="Line 1209" class="cls-3" x1="8.7" y2="5" transform="translate(19.5 111.5)"/>
    </g>
    <g id="Group_2257" data-name="Group 2257">
      <line id="Line_1210" data-name="Line 1210" class="cls-3" x1="8.2" y2="5.7" transform="translate(22.8 116)"/>
    </g>
    <g id="Group_2258" data-name="Group 2258">
      <line id="Line_1211" data-name="Line 1211" class="cls-3" x1="7.7" y2="6.4" transform="translate(26.6 120.2)"/>
    </g>
    <g id="Group_2259" data-name="Group 2259">
      <line id="Line_1212" data-name="Line 1212" class="cls-3" x1="7.1" y2="7.1" transform="translate(30.8 124.1)"/>
    </g>
    <g id="Group_2260" data-name="Group 2260">
      <line id="Line_1213" data-name="Line 1213" class="cls-3" x1="6.4" y2="7.7" transform="translate(35.4 127.7)"/>
    </g>
    <g id="Group_2261" data-name="Group 2261">
      <line id="Line_1214" data-name="Line 1214" class="cls-3" x1="5.7" y2="8.2" transform="translate(40.3 131)"/>
    </g>
    <g id="Group_2262" data-name="Group 2262">
      <line id="Line_1215" data-name="Line 1215" class="cls-3" x1="5" y2="8.7" transform="translate(45.5 133.8)"/>
    </g>
    <g id="Group_2263" data-name="Group 2263">
      <line id="Line_1216" data-name="Line 1216" class="cls-3" x1="4.2" y2="9" transform="translate(51 136.3)"/>
    </g>
    <g id="Group_2264" data-name="Group 2264">
      <line id="Line_1217" data-name="Line 1217" class="cls-3" x1="3.4" y2="9.4" transform="translate(56.7 138.3)"/>
    </g>
    <g id="Group_2265" data-name="Group 2265">
      <line id="Line_1218" data-name="Line 1218" class="cls-3" x1="2.6" y2="9.7" transform="translate(62.6 139.9)"/>
    </g>
    <g id="Group_2266" data-name="Group 2266">
      <line id="Line_1219" data-name="Line 1219" class="cls-3" x1="1.7" y2="9.8" transform="translate(68.7 141.1)"/>
    </g>
    <g id="Group_2267" data-name="Group 2267">
      <line id="Line_1220" data-name="Line 1220" class="cls-3" x1="0.9" y2="9.9" transform="translate(74.8 141.8)"/>
    </g>
    <g id="Group_2268" data-name="Group 2268">
      <line id="Line_1221" data-name="Line 1221" class="cls-3" y2="10" transform="translate(81 142)"/>
    </g>
    <g id="Group_2269" data-name="Group 2269">
      <line id="Line_1222" data-name="Line 1222" class="cls-3" x2="0.9" y2="9.9" transform="translate(86.3 141.8)"/>
    </g>
    <g id="Group_2270" data-name="Group 2270">
      <line id="Line_1223" data-name="Line 1223" class="cls-3" x2="1.7" y2="9.8" transform="translate(91.6 141.1)"/>
    </g>
    <g id="Group_2271" data-name="Group 2271">
      <line id="Line_1224" data-name="Line 1224" class="cls-3" x2="2.6" y2="9.7" transform="translate(96.8 139.9)"/>
    </g>
    <g id="Group_2272" data-name="Group 2272">
      <line id="Line_1225" data-name="Line 1225" class="cls-3" x2="3.4" y2="9.4" transform="translate(101.9 138.3)"/>
    </g>
    <g id="Group_2273" data-name="Group 2273">
      <line id="Line_1226" data-name="Line 1226" class="cls-3" x2="4.2" y2="9" transform="translate(106.8 136.3)"/>
    </g>
    <g id="Group_2274" data-name="Group 2274">
      <line id="Line_1227" data-name="Line 1227" class="cls-3" x2="5" y2="8.7" transform="translate(111.5 133.8)"/>
    </g>
    <g id="Group_2275" data-name="Group 2275">
      <line id="Line_1228" data-name="Line 1228" class="cls-3" x2="5.7" y2="8.2" transform="translate(116 131)"/>
    </g>
    <g id="Group_2276" data-name="Group 2276">
      <line id="Line_1229" data-name="Line 1229" class="cls-3" x2="6.4" y2="7.7" transform="translate(120.2 127.7)"/>
    </g>
    <g id="Group_2277" data-name="Group 2277">
      <line id="Line_1230" data-name="Line 1230" class="cls-3" x2="7.1" y2="7.1" transform="translate(124.1 124.1)"/>
    </g>
    <g id="Group_2278" data-name="Group 2278">
      <line id="Line_1231" data-name="Line 1231" class="cls-3" x2="7.7" y2="6.4" transform="translate(127.7 120.2)"/>
    </g>
    <g id="Group_2279" data-name="Group 2279">
      <line id="Line_1232" data-name="Line 1232" class="cls-3" x2="8.2" y2="5.7" transform="translate(131 116)"/>
    </g>
    <g id="Group_2280" data-name="Group 2280">
      <line id="Line_1233" data-name="Line 1233" class="cls-3" x2="8.7" y2="5" transform="translate(133.8 111.5)"/>
    </g>
    <g id="Group_2281" data-name="Group 2281">
      <line id="Line_1234" data-name="Line 1234" class="cls-3" x2="9" y2="4.2" transform="translate(136.3 106.8)"/>
    </g>
    <g id="Group_2282" data-name="Group 2282">
      <line id="Line_1235" data-name="Line 1235" class="cls-3" x2="9.4" y2="3.4" transform="translate(138.3 101.9)"/>
    </g>
    <g id="Group_2283" data-name="Group 2283">
      <line id="Line_1236" data-name="Line 1236" class="cls-3" x2="9.7" y2="2.6" transform="translate(139.9 96.8)"/>
    </g>
    <g id="Group_2284" data-name="Group 2284">
      <line id="Line_1237" data-name="Line 1237" class="cls-3" x2="9.8" y2="1.7" transform="translate(141.1 91.6)"/>
    </g>
    <g id="Group_2285" data-name="Group 2285">
      <line id="Line_1238" data-name="Line 1238" class="cls-3" x2="9.9" y2="0.9" transform="translate(141.8 86.3)"/>
    </g>
    <g id="Group_2286" data-name="Group 2286">
      <line id="Line_1239" data-name="Line 1239" class="cls-3" x2="10" transform="translate(142 81)"/>
    </g>
    <g id="Group_2287" data-name="Group 2287">
      <line id="Line_1240" data-name="Line 1240" class="cls-3" y1="0.9" x2="9.9" transform="translate(141.8 74.8)"/>
    </g>
    <g id="Group_2288" data-name="Group 2288">
      <line id="Line_1241" data-name="Line 1241" class="cls-3" y1="1.7" x2="9.8" transform="translate(141.1 68.7)"/>
    </g>
    <g id="Group_2289" data-name="Group 2289">
      <line id="Line_1242" data-name="Line 1242" class="cls-3" y1="2.6" x2="9.7" transform="translate(139.9 62.6)"/>
    </g>
    <g id="Group_2290" data-name="Group 2290">
      <line id="Line_1243" data-name="Line 1243" class="cls-3" y1="3.4" x2="9.4" transform="translate(138.3 56.7)"/>
    </g>
    <g id="Group_2291" data-name="Group 2291">
      <line id="Line_1244" data-name="Line 1244" class="cls-3" y1="4.2" x2="9" transform="translate(136.3 51)"/>
    </g>
    <g id="Group_2292" data-name="Group 2292">
      <line id="Line_1245" data-name="Line 1245" class="cls-3" y1="5" x2="8.7" transform="translate(133.8 45.5)"/>
    </g>
    <g id="Group_2293" data-name="Group 2293">
      <line id="Line_1246" data-name="Line 1246" class="cls-3" y1="5.7" x2="8.2" transform="translate(131 40.3)"/>
    </g>
    <g id="Group_2294" data-name="Group 2294">
      <line id="Line_1247" data-name="Line 1247" class="cls-3" y1="6.4" x2="7.7" transform="translate(127.7 35.4)"/>
    </g>
    <g id="Group_2295" data-name="Group 2295">
      <line id="Line_1248" data-name="Line 1248" class="cls-3" y1="7.1" x2="7.1" transform="translate(124.1 30.8)"/>
    </g>
    <g id="Group_2296" data-name="Group 2296">
      <line id="Line_1249" data-name="Line 1249" class="cls-3" y1="7.7" x2="6.4" transform="translate(120.2 26.6)"/>
    </g>
    <g id="Group_2297" data-name="Group 2297">
      <line id="Line_1250" data-name="Line 1250" class="cls-3" y1="8.2" x2="5.7" transform="translate(116 22.8)"/>
    </g>
    <g id="Group_2298" data-name="Group 2298">
      <line id="Line_1251" data-name="Line 1251" class="cls-3" y1="8.7" x2="5" transform="translate(111.5 19.5)"/>
    </g>
    <g id="Group_2299" data-name="Group 2299">
      <line id="Line_1252" data-name="Line 1252" class="cls-3" y1="9" x2="4.2" transform="translate(106.8 16.7)"/>
    </g>
    <g id="Group_2300" data-name="Group 2300">
      <line id="Line_1253" data-name="Line 1253" class="cls-3" y1="9.4" x2="3.4" transform="translate(101.9 14.3)"/>
    </g>
    <g id="Group_2301" data-name="Group 2301">
      <line id="Line_1254" data-name="Line 1254" class="cls-3" y1="9.7" x2="2.6" transform="translate(96.8 12.4)"/>
    </g>
    <g id="Group_2302" data-name="Group 2302">
      <line id="Line_1255" data-name="Line 1255" class="cls-3" y1="9.8" x2="1.7" transform="translate(91.6 11.1)"/>
    </g>
    <g id="Group_2303" data-name="Group 2303">
      <line id="Line_1256" data-name="Line 1256" class="cls-3" y1="9.9" x2="0.9" transform="translate(86.3 10.3)"/>
    </g>
    <g id="Group_2304" data-name="Group 2304">
      <line id="Line_1257" data-name="Line 1257" class="cls-2" x1="14.2" y1="14.2" transform="translate(23.7 23.7)"/>
    </g>
    <g id="Group_2305" data-name="Group 2305">
      <line id="Line_1258" data-name="Line 1258" class="cls-2" x1="20" transform="translate(0 81)"/>
    </g>
    <g id="Group_2306" data-name="Group 2306">
      <line id="Line_1259" data-name="Line 1259" class="cls-2" x1="14.2" y2="14.2" transform="translate(23.7 124.1)"/>
    </g>
    <g id="Group_2307" data-name="Group 2307">
      <line id="Line_1260" data-name="Line 1260" class="cls-2" y2="20" transform="translate(81 142)"/>
    </g>
    <g id="Group_2308" data-name="Group 2308">
      <line id="Line_1261" data-name="Line 1261" class="cls-2" x2="14.2" y2="14.2" transform="translate(124.1 124.1)"/>
    </g>
    <g id="Group_2309" data-name="Group 2309">
      <line id="Line_1262" data-name="Line 1262" class="cls-2" x2="20" transform="translate(142 81)"/>
    </g>
    <g id="Group_2310" data-name="Group 2310">
      <line id="Line_1263" data-name="Line 1263" class="cls-2" y1="14.2" x2="14.2" transform="translate(124.1 23.7)"/>
    </g>
  </g>
</svg>
