<svg xmlns="http://www.w3.org/2000/svg" xmlns:xlink="http://www.w3.org/1999/xlink" viewBox="3691 -8601 9 101">
  <defs>
    <style>
      .cls-1 {
        fill: url(#linear-gradient);
      }

      .cls-2 {
        fill: #fff;
        stroke: #000;
        stroke-miterlimit: 10;
      }
    </style>
    <linearGradient id="linear-gradient" x1="0.5" x2="0.5" y2="1" gradientUnits="objectBoundingBox">
      <stop offset="0" stop-color="#b3b3b3"/>
      <stop offset="0.103" stop-color="#bfbfbf"/>
      <stop offset="0.29" stop-color="#dfdfdf"/>
      <stop offset="0.45" stop-color="#fff"/>
      <stop offset="0.511" stop-color="#f0f0f0"/>
      <stop offset="0.672" stop-color="#cfcfcf"/>
      <stop offset="0.805" stop-color="#bababa"/>
      <stop offset="0.893" stop-color="#b3b3b3"/>
      <stop offset="0.896" stop-color="#bd9b9b"/>
      <stop offset="0.902" stop-color="#c77"/>
      <stop offset="0.908" stop-color="#da5757"/>
      <stop offset="0.914" stop-color="#e63b3b"/>
      <stop offset="0.922" stop-color="#ef2525"/>
      <stop offset="0.931" stop-color="#f61414"/>
      <stop offset="0.942" stop-color="#fb0909"/>
      <stop offset="0.957" stop-color="#fe0202"/>
      <stop offset="1" stop-color="red"/>
    </linearGradient>
  </defs>
  <g id="Group_2313" data-name="Group 2313" transform="translate(3691 -8601)">
    <g id="Group_2312" data-name="Group 2312">
      <path id="Path_1008" data-name="Path 1008" class="cls-1" d="M4.5,100.5c-1.9,0-4-4-4-10,0-8.4,1.9-81.3,4-89.4,2.1,8.2,4,81,4,89.4C8.5,96.5,6.4,100.5,4.5,100.5Z"/>
      <path id="Path_1009" data-name="Path 1009" d="M4.5,4.2C6.4,20.2,8,82.9,8,90.5c0,5.9-2,9.5-3.5,9.5S1,96.4,1,90.5C1,82.9,2.6,20.2,4.5,4.2M4.5,0C2,0,0,84.7,0,90.5S2,101,4.5,101,9,96.3,9,90.5,7,0,4.5,0Z"/>
    </g>
    <circle id="Ellipse_4" data-name="Ellipse 4" class="cls-2" cx="2" cy="2" r="2" transform="translate(2.5 88.5)"/>
  </g>
</svg>
