<svg xmlns="http://www.w3.org/2000/svg" viewBox="-4403 -280 31.518 28">
  <defs>
    <style>
      .cls-1 {
        fill: #0000a0;
      }
    </style>
  </defs>
  <g id="Group_2877" data-name="Group 2877" transform="translate(-7527 -5463)">
    <g id="专家库" transform="translate(3124 5125.616)">
      <path id="Path_1124" data-name="Path 1124" class="cls-1" d="M627.95,564.619a6.19,6.19,0,1,0,4.4,1.8A6.19,6.19,0,0,0,627.95,564.619Zm0,11a4.806,4.806,0,1,1,4.806-4.806A4.806,4.806,0,0,1,627.95,575.624Z" transform="translate(-602.658 -491.623)"/>
      <path id="Path_1125" data-name="Path 1125" class="cls-1" d="M22.08,78.231h1.952l.158-.648H22.561V76.9h1.751l.158-.788.753.061-.131.727h2.924v.683H24.977l-.149.648h3.607v.7H24.645q-.131.438-.228.718h3.2v.63a5.892,5.892,0,0,1-1.445,1.383q.473.158,1.042.411l-.4.63a17.658,17.658,0,0,0-3.178-1.129L24.023,81q.762.193,1.366.385a6.312,6.312,0,0,0,1.357-1.068H23.366q.219-.587.473-1.392H22.088Zm-4.264.963a7.179,7.179,0,0,1,1.191-3.957c-.166-.324-.306-.648-.411-.875l-.8-.114c.044-.875.587-.928.8-1.6s0-1.366.324-1.917c.21-.385.674-.385.875-.709a3.318,3.318,0,0,0,.42-1.182,3.9,3.9,0,0,0-.088-2.241,1.952,1.952,0,0,1-.35-.875c-.061-.552.158-2.381.166-2.775a10.821,10.821,0,0,0-.219-2.95,2.574,2.574,0,0,0-.77-1.173l-.937-.158-.578-.543c-2.329-1.436-4.815-.429-6.128.123-1.926.622-3.143,3.362-2.294,7.407.149.692-.376,1-.341,1.374.079.823.1,2.81.875,3.292a2,2,0,0,0,.622.14l.228,2.416c.193.534.657.6.788,1.339l-.6.14a6.233,6.233,0,0,1-1.252,2.066l-1.252.341c-1.5.622-3.125,1.348-4.587,1.97-1.348.525-2.95.77-3.432,2.18,0,.972-.07,3.213-.07,4.474H21.318A7.214,7.214,0,0,1,17.816,79.194Z"/>
    </g>
  </g>
</svg>
