<svg xmlns="http://www.w3.org/2000/svg" viewBox="-4403 -151 26.873 28">
  <defs>
    <style>
      .cls-1 {
        fill: #0000a0;
      }
    </style>
  </defs>
  <g id="Group_2879" data-name="Group 2879" transform="translate(-7527 -5463)">
    <g id="注销" transform="translate(3072.667 5280)">
      <path id="Path_1129" data-name="Path 1129" class="cls-1" d="M51.867,303.29a1.226,1.226,0,0,0-.126.125l-.05.05h0l-.014.014a1.221,1.221,0,0,0,.014,1.713l5.048,5.022a1.191,1.191,0,0,0,1.7-.014,1.221,1.221,0,0,0-.014-1.713l-3.074-3.058H66.773a1.215,1.215,0,0,0,0-2.43h-11.2l2.846-2.839a1.221,1.221,0,0,0,.014-1.713,1.191,1.191,0,0,0-1.7-.014l-4.869,4.857Z" transform="translate(0 -258.324)"/>
      <path id="Path_1130" data-name="Path 1130" class="cls-1" d="M372.883,33.8h-10.6q-1.89.118-1.994,1.743l-.006.141v5.149a.92.92,0,0,1-1.823-.117V35.689a1.788,1.788,0,0,1,.013-.216l0-.038h0a3.441,3.441,0,0,1,1.163-2.482,4.119,4.119,0,0,1,2.533-.946c.038,0,.076,0,.114,0v0h10.6a3.29,3.29,0,0,1,3.479,3.292,1.8,1.8,0,0,1,.013.217v20.8h0a1.775,1.775,0,0,1-.011.2l-.016.141h0l0,.029a3.644,3.644,0,0,1-1.376,2.6,3.749,3.749,0,0,1-2.192.714,1.868,1.868,0,0,1-.2.011l-10.283,0c-.038,0-.076,0-.114,0a4.118,4.118,0,0,1-2.533-.946,3.441,3.441,0,0,1-1.163-2.482h0l0-.038a1.788,1.788,0,0,1-.013-.216V51.278a.92.92,0,0,1,1.823-.117v5.149l.006.141q.1,1.625,1.994,1.743h10.283a1.75,1.75,0,0,0,1.971-1.743l.016-.141v-20.8a1.516,1.516,0,0,0-1.669-1.7Z" transform="translate(-298.171)"/>
    </g>
  </g>
</svg>
