<svg xmlns="http://www.w3.org/2000/svg" viewBox="-4404 -410 29.085 28">
  <defs>
    <style>
      .cls-1 {
        fill: #0000a0;
      }
    </style>
  </defs>
  <g id="Group_2875" data-name="Group 2875" transform="translate(-7527 -5463)">
    <path id="生产管理" class="cls-1" d="M10.14,25.638a4.971,4.971,0,0,0-5.07-4.865A4.971,4.971,0,0,0,0,25.638,4.763,4.763,0,0,0,1.414,29.01,12.31,12.31,0,0,0,1.051,32,12.778,12.778,0,0,0,7.4,42.953l1.014-4A8.925,8.925,0,0,1,5.027,32,8.59,8.59,0,0,1,5.155,30.5a4.969,4.969,0,0,0,4.985-4.865m4.349-2.718a9.709,9.709,0,0,1,4.8,1.255,4.63,4.63,0,0,0-.341,1.761,5.073,5.073,0,1,0,5.067-4.865,5.244,5.244,0,0,0-1.855.335,13.941,13.941,0,0,0-13.1-1.21l2.318,3.224a9.842,9.842,0,0,1,3.11-.5M23.935,32.4a9.06,9.06,0,0,1-5.03,7.621,5.092,5.092,0,0,0-4.516-2.656,4.871,4.871,0,1,0,0,9.734,5.074,5.074,0,0,0,4.672-2.977A12.944,12.944,0,0,0,27.923,32c0-.287-.011-.568-.031-.849ZM14.389,45.793a3.566,3.566,0,1,1,0-7.121,3.775,3.775,0,0,1,3.363,1.963l.6,1.133,1.145-.582a10.453,10.453,0,0,0,5.658-7.8l1.423-.452a11.168,11.168,0,0,1-2.2,5.763,11.867,11.867,0,0,1-2.528,2.5,12.3,12.3,0,0,1-3.224,1.69l-.54.187-.23.523a3.588,3.588,0,0,1-1.349,1.571,3.889,3.889,0,0,1-2.125.622ZM6.6,40.8a11.776,11.776,0,0,1-2.678-3.11A11.19,11.19,0,0,1,2.36,31.992a11.012,11.012,0,0,1,.324-2.67l.179-.716-.523-.523a3.438,3.438,0,0,1-1.034-2.446A3.671,3.671,0,0,1,5.07,22.08a3.671,3.671,0,0,1,3.763,3.559,3.445,3.445,0,0,1-1.062,2.48A3.849,3.849,0,0,1,5.132,29.2l-1.076.017L3.869,30.28A9.79,9.79,0,0,0,3.721,32a10.183,10.183,0,0,0,3.232,7.419ZM24.015,29.5a3.668,3.668,0,0,1-3.761-3.559,3.367,3.367,0,0,1,.244-1.27l.435-1.065-1-.565a11.151,11.151,0,0,0-8.03-1.125l-.761-1.059a12.671,12.671,0,0,1,3.346-.446,12.449,12.449,0,0,1,6.945,2.088l.56.375.628-.239a3.9,3.9,0,0,1,1.392-.253,3.564,3.564,0,1,1,0,7.118Z" transform="translate(3123 5033.9)"/>
  </g>
</svg>
