<svg xmlns="http://www.w3.org/2000/svg" viewBox="-4403 -216 28 28">
  <defs>
    <style>
      .cls-1 {
        fill: #0000a0;
      }
    </style>
  </defs>
  <g id="Group_2878" data-name="Group 2878" transform="translate(-7527 -5463)">
    <path id="信息系统" class="cls-1" d="M91.626,99.317h12.25a.875.875,0,1,0,0-1.75H91.626a.875.875,0,0,0,0,1.75Zm15.75-7.875c-.129-.663-.784-1.75-1.75-1.75H89c-.967,0-1.587,1.111-1.75,1.75l-3.5,14.883v8.742a2.625,2.625,0,0,0,2.625,2.625h22.75a2.625,2.625,0,0,0,2.625-2.625v-8.742l-4.375-14.883ZM89,92.317a.875.875,0,0,1,.875-.875h14.875a.875.875,0,0,1,.875.875l4.1,13.125H103a.82.82,0,0,0-.875.875v2.625a.875.875,0,0,1-.875.875h-7a.875.875,0,0,1-.875-.875v-2.625a.857.857,0,0,0-.875-.875H85.724L89,92.317Zm21,21.875a1.75,1.75,0,0,1-1.75,1.75h-21a1.75,1.75,0,0,1-1.75-1.75v-7h6.125v2.625a1.75,1.75,0,0,0,1.75,1.75h8.75a1.75,1.75,0,0,0,1.75-1.75v-2.625H110v7Zm-4.375-12.25a.875.875,0,0,0-.875-.875h-14a.875.875,0,1,0,0,1.75h14A.875.875,0,0,0,105.626,101.942ZM92.5,95.817H103a.875.875,0,0,0,0-1.75H92.5a.875.875,0,0,0,0,1.75Z" transform="translate(3040.249 5157.308)"/>
  </g>
</svg>
