<svg xmlns="http://www.w3.org/2000/svg" viewBox="3861 -10072 148 111">
  <defs>
    <style>
      .cls-1, .cls-10, .cls-3, .cls-4, .cls-7, .cls-8, .cls-9 {
        fill: none;
      }

      .cls-1, .cls-10, .cls-2, .cls-4, .cls-7, .cls-8, .cls-9 {
        stroke: #29abe2;
      }

      .cls-1, .cls-10, .cls-2, .cls-3, .cls-7, .cls-8, .cls-9 {
        stroke-linecap: round;
      }

      .cls-1, .cls-2, .cls-3, .cls-4 {
        stroke-miterlimit: 10;
      }

      .cls-1, .cls-10, .cls-2, .cls-7, .cls-8, .cls-9 {
        stroke-width: 2px;
      }

      .cls-2 {
        fill: #fff;
      }

      .cls-10, .cls-2, .cls-7, .cls-8, .cls-9 {
        stroke-linejoin: round;
      }

      .cls-3 {
        stroke: #8cc63f;
        stroke-width: 4px;
      }

      .cls-5 {
        fill: #534741;
      }

      .cls-6 {
        fill: #8cc63f;
      }

      .cls-8 {
        stroke-dasharray: 6.001 8.002;
      }

      .cls-9 {
        stroke-dasharray: 5.96 7.947;
      }

      .cls-10 {
        stroke-dasharray: 6.337 8.449;
      }
    </style>
  </defs>
  <g id="Group_2626" data-name="Group 2626" transform="translate(3861 -10072)">
    <g id="Group_2619" data-name="Group 2619">
      <path id="Path_1116" data-name="Path 1116" class="cls-1" d="M19.5,92,15,96.5V106"/>
      <rect id="Rectangle_3230" data-name="Rectangle 3230" class="cls-2" width="11.3" height="4.2" transform="translate(18.955 84.984) rotate(45)"/>
    </g>
    <path id="Path_1117" data-name="Path 1117" class="cls-3" d="M78.5,81.4S74,94,78,102"/>
    <path id="Path_1118" data-name="Path 1118" class="cls-4" d="M125.3.8C57,.8.8,46,.8,101.8"/>
    <rect id="Rectangle_3231" data-name="Rectangle 3231" class="cls-5" width="22.7" height="100.9" transform="translate(125.3)"/>
    <rect id="Rectangle_3232" data-name="Rectangle 3232" class="cls-5" width="148" height="11.8" transform="translate(0 99.2)"/>
    <ellipse id="Ellipse_474" data-name="Ellipse 474" class="cls-6" cx="7.2" cy="13.8" rx="7.2" ry="13.8" transform="translate(51.786 68.748) rotate(-45)"/>
    <ellipse id="Ellipse_475" data-name="Ellipse 475" class="cls-6" cx="13.8" cy="7.2" rx="13.8" ry="7.2" transform="matrix(0.866, -0.5, 0.5, 0.866, 74.462, 76.049)"/>
    <g id="Group_2621" data-name="Group 2621">
      <g id="Group_2620" data-name="Group 2620">
        <path id="Path_1119" data-name="Path 1119" class="cls-7" d="M22,81s.5-1,1.4-2.7"/>
        <path id="Path_1120" data-name="Path 1120" class="cls-8" d="M27.5,71.5C41,50.2,77.7,6.6,116,84.2"/>
        <path id="Path_1121" data-name="Path 1121" class="cls-7" d="M117.7,87.8c.4.9.8,1.8,1.3,2.7"/>
      </g>
    </g>
    <g id="Group_2623" data-name="Group 2623">
      <g id="Group_2622" data-name="Group 2622">
        <path id="Path_1122" data-name="Path 1122" class="cls-7" d="M27,85.2s.5-1,1.4-2.6"/>
        <path id="Path_1123" data-name="Path 1123" class="cls-9" d="M32.7,75.9C43.3,61,67.3,37.8,92.8,84.3"/>
        <path id="Path_1124" data-name="Path 1124" class="cls-7" d="M94.7,87.8c.4.9.9,1.8,1.3,2.7"/>
      </g>
    </g>
    <g id="Group_2625" data-name="Group 2625">
      <g id="Group_2624" data-name="Group 2624">
        <path id="Path_1125" data-name="Path 1125" class="cls-7" d="M31,91s.6-1,1.6-2.5"/>
        <path id="Path_1126" data-name="Path 1126" class="cls-10" d="M37.9,81.9c7.4-7.5,20-14.5,33.9,3.2"/>
        <path id="Path_1127" data-name="Path 1127" class="cls-7" d="M74.4,88.5c.5.8,1.1,1.6,1.6,2.5"/>
      </g>
    </g>
  </g>
</svg>
