<svg xmlns="http://www.w3.org/2000/svg" viewBox="-2646 -77 28 22.856">
  <defs>
    <style>
      .cls-1 {
        fill: #fff;
      }
    </style>
  </defs>
  <g id="Group_2718" data-name="Group 2718" transform="translate(-2750 -580)">
    <path id="Path_1157" data-name="Path 1157" class="cls-1" d="M59.034,145.786c0,1.023-.1,5.447,0,7.016a5.117,5.117,0,0,0,2.2,1.868c.2,5.777,5.385,10.409,11.776,10.409,6.411,0,11.617-4.663,11.779-10.467a5.271,5.271,0,0,0,2.2-1.811v-7.016C82.441,141,63.439,141.072,59.034,145.786Zm18.325,15.346h-.267c-.6,1.019-2.2,1.754-4.1,1.754s-3.5-.735-4.1-1.754h-.268v-5.7h0a4.368,4.368,0,0,1,8.736,0v5.7Zm7.433-10.785c-4.282-2.576-19.4-2.61-23.554,0-.082-.806-.035-3.159-.035-3.685,5.276-3.045,19.573-2.821,23.588.078Z" transform="translate(45.009 360.777)"/>
    <path id="Path_1158" data-name="Path 1158" class="cls-1" d="M428.323,532.532m-2.668,0a2.668,2.668,0,1,0,2.668-2.668A2.668,2.668,0,0,0,425.654,532.532Z" transform="translate(-310.323 -14.883)"/>
  </g>
</svg>
