<svg id="Group_2611" data-name="Group 2611" xmlns="http://www.w3.org/2000/svg" xmlns:xlink="http://www.w3.org/1999/xlink" viewBox="4273 -11334 80 160">
  <defs>
    <style>
      .cls-1, .cls-5, .cls-7, .cls-8 {
        fill: none;
      }

      .cls-2 {
        font-size: 20px;
        font-family: HelveticaNeue, Helvetica Neue;
      }

      .cls-3 {
        font-size: 12px;
        font-family: HelveticaNeue-Bold, Helvetica Neue;
        font-weight: 700;
      }

      .cls-4 {
        clip-path: url(#clip-path);
      }

      .cls-5, .cls-7, .cls-8 {
        stroke: #000;
      }

      .cls-5 {
        stroke-width: 1.5px;
      }

      .cls-6 {
        clip-path: url(#clip-path-2);
      }

      .cls-7 {
        stroke-width: 0.75px;
      }

      .cls-9 {
        stroke: none;
      }
    </style>
    <clipPath id="clip-path">
      <rect class="cls-1" width="13" height="132"/>
    </clipPath>
    <clipPath id="clip-path-2">
      <rect class="cls-1" width="7" height="117"/>
    </clipPath>
  </defs>
  <text id="CO2" class="cls-2" transform="translate(4301 -11238)"><tspan x="0" y="0">CO</tspan><tspan class="cls-3" y="0">2</tspan></text>
  <g id="Group_2160" data-name="Group 2160" transform="translate(3530 -11654)">
    <g id="Repeat_Grid_159" data-name="Repeat Grid 159" class="cls-4" transform="translate(743.5 334)">
      <g transform="translate(-743.5 -336.5)">
        <line id="Line_1120" data-name="Line 1120" class="cls-5" x2="13" transform="translate(743.5 337.5)"/>
      </g>
      <g transform="translate(-743.5 -316.5)">
        <line id="Line_1120-2" data-name="Line 1120" class="cls-5" x2="13" transform="translate(743.5 337.5)"/>
      </g>
      <g transform="translate(-743.5 -296.5)">
        <line id="Line_1120-3" data-name="Line 1120" class="cls-5" x2="13" transform="translate(743.5 337.5)"/>
      </g>
      <g transform="translate(-743.5 -276.5)">
        <line id="Line_1120-4" data-name="Line 1120" class="cls-5" x2="13" transform="translate(743.5 337.5)"/>
      </g>
      <g transform="translate(-743.5 -256.5)">
        <line id="Line_1120-5" data-name="Line 1120" class="cls-5" x2="13" transform="translate(743.5 337.5)"/>
      </g>
      <g transform="translate(-743.5 -236.5)">
        <line id="Line_1120-6" data-name="Line 1120" class="cls-5" x2="13" transform="translate(743.5 337.5)"/>
      </g>
      <g transform="translate(-743.5 -216.5)">
        <line id="Line_1120-7" data-name="Line 1120" class="cls-5" x2="13" transform="translate(743.5 337.5)"/>
      </g>
    </g>
    <g id="Repeat_Grid_160" data-name="Repeat Grid 160" class="cls-6" transform="translate(743.5 338)">
      <g transform="translate(-743.5 -338.5)">
        <line id="Line_1121" data-name="Line 1121" class="cls-7" x2="7" transform="translate(743.5 339.5)"/>
      </g>
      <g transform="translate(-743.5 -334.5)">
        <line id="Line_1121-2" data-name="Line 1121" class="cls-7" x2="7" transform="translate(743.5 339.5)"/>
      </g>
      <g transform="translate(-743.5 -330.5)">
        <line id="Line_1121-3" data-name="Line 1121" class="cls-7" x2="7" transform="translate(743.5 339.5)"/>
      </g>
      <g transform="translate(-743.5 -326.5)">
        <line id="Line_1121-4" data-name="Line 1121" class="cls-7" x2="7" transform="translate(743.5 339.5)"/>
      </g>
      <g transform="translate(-743.5 -322.5)">
        <line id="Line_1121-5" data-name="Line 1121" class="cls-7" x2="7" transform="translate(743.5 339.5)"/>
      </g>
      <g transform="translate(-743.5 -318.5)">
        <line id="Line_1121-6" data-name="Line 1121" class="cls-7" x2="7" transform="translate(743.5 339.5)"/>
      </g>
      <g transform="translate(-743.5 -314.5)">
        <line id="Line_1121-7" data-name="Line 1121" class="cls-7" x2="7" transform="translate(743.5 339.5)"/>
      </g>
      <g transform="translate(-743.5 -310.5)">
        <line id="Line_1121-8" data-name="Line 1121" class="cls-7" x2="7" transform="translate(743.5 339.5)"/>
      </g>
      <g transform="translate(-743.5 -306.5)">
        <line id="Line_1121-9" data-name="Line 1121" class="cls-7" x2="7" transform="translate(743.5 339.5)"/>
      </g>
      <g transform="translate(-743.5 -302.5)">
        <line id="Line_1121-10" data-name="Line 1121" class="cls-7" x2="7" transform="translate(743.5 339.5)"/>
      </g>
      <g transform="translate(-743.5 -298.5)">
        <line id="Line_1121-11" data-name="Line 1121" class="cls-7" x2="7" transform="translate(743.5 339.5)"/>
      </g>
      <g transform="translate(-743.5 -294.5)">
        <line id="Line_1121-12" data-name="Line 1121" class="cls-7" x2="7" transform="translate(743.5 339.5)"/>
      </g>
      <g transform="translate(-743.5 -290.5)">
        <line id="Line_1121-13" data-name="Line 1121" class="cls-7" x2="7" transform="translate(743.5 339.5)"/>
      </g>
      <g transform="translate(-743.5 -286.5)">
        <line id="Line_1121-14" data-name="Line 1121" class="cls-7" x2="7" transform="translate(743.5 339.5)"/>
      </g>
      <g transform="translate(-743.5 -282.5)">
        <line id="Line_1121-15" data-name="Line 1121" class="cls-7" x2="7" transform="translate(743.5 339.5)"/>
      </g>
      <g transform="translate(-743.5 -278.5)">
        <line id="Line_1121-16" data-name="Line 1121" class="cls-7" x2="7" transform="translate(743.5 339.5)"/>
      </g>
      <g transform="translate(-743.5 -274.5)">
        <line id="Line_1121-17" data-name="Line 1121" class="cls-7" x2="7" transform="translate(743.5 339.5)"/>
      </g>
      <g transform="translate(-743.5 -270.5)">
        <line id="Line_1121-18" data-name="Line 1121" class="cls-7" x2="7" transform="translate(743.5 339.5)"/>
      </g>
      <g transform="translate(-743.5 -266.5)">
        <line id="Line_1121-19" data-name="Line 1121" class="cls-7" x2="7" transform="translate(743.5 339.5)"/>
      </g>
      <g transform="translate(-743.5 -262.5)">
        <line id="Line_1121-20" data-name="Line 1121" class="cls-7" x2="7" transform="translate(743.5 339.5)"/>
      </g>
      <g transform="translate(-743.5 -258.5)">
        <line id="Line_1121-21" data-name="Line 1121" class="cls-7" x2="7" transform="translate(743.5 339.5)"/>
      </g>
      <g transform="translate(-743.5 -254.5)">
        <line id="Line_1121-22" data-name="Line 1121" class="cls-7" x2="7" transform="translate(743.5 339.5)"/>
      </g>
      <g transform="translate(-743.5 -250.5)">
        <line id="Line_1121-23" data-name="Line 1121" class="cls-7" x2="7" transform="translate(743.5 339.5)"/>
      </g>
      <g transform="translate(-743.5 -246.5)">
        <line id="Line_1121-24" data-name="Line 1121" class="cls-7" x2="7" transform="translate(743.5 339.5)"/>
      </g>
      <g transform="translate(-743.5 -242.5)">
        <line id="Line_1121-25" data-name="Line 1121" class="cls-7" x2="7" transform="translate(743.5 339.5)"/>
      </g>
      <g transform="translate(-743.5 -238.5)">
        <line id="Line_1121-26" data-name="Line 1121" class="cls-7" x2="7" transform="translate(743.5 339.5)"/>
      </g>
      <g transform="translate(-743.5 -234.5)">
        <line id="Line_1121-27" data-name="Line 1121" class="cls-7" x2="7" transform="translate(743.5 339.5)"/>
      </g>
      <g transform="translate(-743.5 -230.5)">
        <line id="Line_1121-28" data-name="Line 1121" class="cls-7" x2="7" transform="translate(743.5 339.5)"/>
      </g>
      <g transform="translate(-743.5 -226.5)">
        <line id="Line_1121-29" data-name="Line 1121" class="cls-7" x2="7" transform="translate(743.5 339.5)"/>
      </g>
      <g transform="translate(-743.5 -222.5)">
        <line id="Line_1121-30" data-name="Line 1121" class="cls-7" x2="7" transform="translate(743.5 339.5)"/>
      </g>
    </g>
  </g>
  <g id="Rectangle_2942" data-name="Rectangle 2942" class="cls-8" transform="translate(4273 -11334)">
    <rect class="cls-9" width="80" height="160" rx="15"/>
    <rect class="cls-1" x="0.5" y="0.5" width="79" height="159" rx="14.5"/>
  </g>
</svg>
